EB Garamond 12-Bold.ufo
<glyph name="ampersand" format="1">
  <advance width="789"/>
  <unicode hex="0026"/>
  <note>
    ampersand
  </note>
  <outline>
    <contour>
      <point x="261" y="-16"/>
      <point x="338" y="16"/>
      <point x="396" y="85" type="curve" smooth="yes"/>
      <point x="401" y="91" type="line"/>
      <point x="420" y="70" type="line" smooth="yes"/>
      <point x="472" y="13"/>
      <point x="511" y="-15"/>
      <point x="592" y="-15" type="curve" smooth="yes"/>
      <point x="693" y="-15"/>
      <point x="763" y="48"/>
      <point x="763" y="79" type="curve" smooth="yes"/>
      <point x="763" y="92"/>
      <point x="756" y="94"/>
      <point x="745" y="94" type="curve" smooth="yes"/>
      <point x="737" y="94"/>
      <point x="728" y="89"/>
      <point x="721" y="87" type="curve" smooth="yes"/>
      <point x="693" y="77"/>
      <point x="664" y="73"/>
      <point x="642" y="73" type="curve" smooth="yes"/>
      <point x="603" y="73"/>
      <point x="567" y="114"/>
      <point x="526" y="163" type="curve"/>
      <point x="507" y="185" type="line"/>
      <point x="555" y="228"/>
      <point x="607" y="268"/>
      <point x="653" y="313" type="curve" smooth="yes"/>
      <point x="675" y="335"/>
      <point x="705" y="361"/>
      <point x="749" y="369" type="curve" smooth="yes"/>
      <point x="771" y="373"/>
      <point x="784" y="386"/>
      <point x="784" y="398" type="curve" smooth="yes"/>
      <point x="784" y="404"/>
      <point x="778" y="412"/>
      <point x="767" y="412" type="curve" smooth="yes"/>
      <point x="732" y="412"/>
      <point x="673" y="389"/>
      <point x="630" y="389" type="curve" smooth="yes"/>
      <point x="592" y="389"/>
      <point x="558" y="397"/>
      <point x="529" y="397" type="curve" smooth="yes"/>
      <point x="512" y="397"/>
      <point x="498" y="396"/>
      <point x="498" y="382" type="curve" smooth="yes"/>
      <point x="498" y="370"/>
      <point x="508" y="367"/>
      <point x="520" y="362" type="curve" smooth="yes"/>
      <point x="534" y="356"/>
      <point x="549" y="348"/>
      <point x="549" y="327" type="curve" smooth="yes"/>
      <point x="549" y="303"/>
      <point x="532" y="263"/>
      <point x="495" y="229" type="curve" smooth="yes"/>
      <point x="482" y="217" type="line"/>
      <point x="462" y="237" type="line"/>
      <point x="429" y="270"/>
      <point x="388" y="314"/>
      <point x="355" y="347" type="curve"/>
      <point x="333" y="370" type="line"/>
      <point x="357" y="379" type="line" smooth="yes"/>
      <point x="422" y="403"/>
      <point x="463" y="431"/>
      <point x="463" y="494" type="curve" smooth="yes"/>
      <point x="463" y="557"/>
      <point x="394" y="600"/>
      <point x="302" y="600" type="curve" smooth="yes"/>
      <point x="187" y="600"/>
      <point x="111" y="544"/>
      <point x="111" y="474" type="curve" smooth="yes"/>
      <point x="111" y="415"/>
      <point x="158" y="374"/>
      <point x="179" y="352" type="curve" smooth="yes"/>
      <point x="186" y="345" type="line"/>
      <point x="165" y="335" type="line" smooth="yes"/>
      <point x="65" y="287"/>
      <point x="10" y="204"/>
      <point x="10" y="131" type="curve" smooth="yes"/>
      <point x="10" y="31"/>
      <point x="109" y="-16"/>
      <point x="187" y="-16" type="curve" smooth="yes"/>
    </contour>
    <contour>
      <point x="199" y="85"/>
      <point x="154" y="133"/>
      <point x="154" y="215" type="curve" smooth="yes"/>
      <point x="154" y="252"/>
      <point x="166" y="284"/>
      <point x="192" y="301" type="curve" smooth="yes"/>
      <point x="209" y="312" type="line"/>
      <point x="221" y="298" type="line"/>
      <point x="267" y="245"/>
      <point x="309" y="193"/>
      <point x="355" y="140" type="curve"/>
      <point x="371" y="121" type="line"/>
      <point x="364" y="114" type="line" smooth="yes"/>
      <point x="335" y="85"/>
      <point x="297" y="85"/>
      <point x="270" y="85" type="curve" smooth="yes"/>
    </contour>
    <contour>
      <point x="291" y="416" type="line" smooth="yes"/>
      <point x="280" y="427"/>
      <point x="254" y="454"/>
      <point x="254" y="511" type="curve" smooth="yes"/>
      <point x="254" y="541"/>
      <point x="275" y="562"/>
      <point x="297" y="562" type="curve" smooth="yes"/>
      <point x="332" y="562"/>
      <point x="345" y="526"/>
      <point x="344" y="488" type="curve" smooth="yes"/>
      <point x="344" y="456"/>
      <point x="337" y="421"/>
      <point x="322" y="406" type="curve" smooth="yes"/>
      <point x="312" y="396" type="line"/>
    </contour>
  </outline>
</glyph>
<glyph name="comma" format="1">
  <advance width="244"/>
  <unicode hex="002C"/>
  <note>
    comma
  </note>
  <outline>
    <contour>
      <point x="126" y="-168"/>
      <point x="214" y="-94"/>
      <point x="214" y="15" type="curve" smooth="yes"/>
      <point x="214" y="77"/>
      <point x="172" y="120"/>
      <point x="109" y="120" type="curve" smooth="yes"/>
      <point x="72" y="120"/>
      <point x="36" y="91"/>
      <point x="36" y="55" type="curve" smooth="yes"/>
      <point x="36" y="20"/>
      <point x="56" y="1"/>
      <point x="78" y="-6" type="curve" smooth="yes"/>
      <point x="100" y="-13"/>
      <point x="120" y="-24"/>
      <point x="120" y="-50" type="curve" smooth="yes"/>
      <point x="120" y="-89"/>
      <point x="91" y="-120"/>
      <point x="36" y="-134" type="curve" smooth="yes"/>
      <point x="21" y="-138"/>
      <point x="12" y="-140"/>
      <point x="12" y="-151" type="curve" smooth="yes"/>
      <point x="12" y="-162"/>
      <point x="23" y="-168"/>
      <point x="39" y="-168" type="curve" smooth="yes"/>
    </contour>
  </outline>
</glyph>
<glyph name="O" format="1">
  <advance width="759"/>
  <unicode hex="004F"/>
  <note>
    O
  </note>
  <outline>
    <contour>
      <point x="609" y="-14"/>
      <point x="734" y="155"/>
      <point x="734" y="335" type="curve" smooth="yes"/>
      <point x="734" y="532"/>
      <point x="570" y="664"/>
      <point x="384" y="664" type="curve" smooth="yes"/>
      <point x="150" y="664"/>
      <point x="25" y="495"/>
      <point x="25" y="315" type="curve" smooth="yes"/>
      <point x="25" y="118"/>
      <point x="189" y="-14"/>
      <point x="375" y="-14" type="curve" smooth="yes"/>
    </contour>
    <contour>
      <point x="262" y="33"/>
      <point x="206" y="208"/>
      <point x="206" y="367" type="curve" smooth="yes"/>
      <point x="206" y="513"/>
      <point x="259" y="616"/>
      <point x="364" y="616" type="curve" smooth="yes"/>
      <point x="496" y="616"/>
      <point x="553" y="443"/>
      <point x="553" y="283" type="curve" smooth="yes"/>
      <point x="553" y="136"/>
      <point x="499" y="33"/>
      <point x="393" y="33" type="curve" smooth="yes"/>
    </contour>
    <contour>
      <point x="392" y="675" type="move" name="top.cap"/>
    </contour>
    <contour>
      <point x="382" y="-30" type="move" name="bottom.cap"/>
    </contour>
  </outline>
</glyph>
<glyph name="o" format="1">
  <advance width="505"/>
  <unicode hex="006F"/>
  <note>
    o
  </note>
  <outline>
    <contour>
      <point x="401" y="-14"/>
      <point x="484" y="95"/>
      <point x="484" y="226" type="curve" smooth="yes"/>
      <point x="484" y="339"/>
      <point x="385" y="437"/>
      <point x="260" y="437" type="curve" smooth="yes"/>
      <point x="126" y="437"/>
      <point x="21" y="328"/>
      <point x="21" y="197" type="curve" smooth="yes"/>
      <point x="21" y="74"/>
      <point x="116" y="-14"/>
      <point x="238" y="-14" type="curve" smooth="yes"/>
    </contour>
    <contour>
      <point x="208" y="33"/>
      <point x="172" y="127"/>
      <point x="172" y="222" type="curve" smooth="yes"/>
      <point x="172" y="299"/>
      <point x="179" y="349"/>
      <point x="202" y="373" type="curve" smooth="yes"/>
      <point x="213" y="384"/>
      <point x="227" y="390"/>
      <point x="245" y="390" type="curve" smooth="yes"/>
      <point x="297" y="390"/>
      <point x="332" y="313"/>
      <point x="332" y="202" type="curve" smooth="yes"/>
      <point x="332" y="135"/>
      <point x="326" y="89"/>
      <point x="310" y="62" type="curve" smooth="yes"/>
      <point x="298" y="43"/>
      <point x="281" y="33"/>
      <point x="257" y="33" type="curve" smooth="yes"/>
    </contour>
    <contour>
      <point x="259" y="440" type="move" name="top"/>
    </contour>
    <contour>
      <point x="250" y="-30" type="move" name="bottom"/>
    </contour>
  </outline>
</glyph>
<glyph name="degree" format="1">
  <advance width="359"/>
  <unicode hex="00B0"/>
  <note>
    degree
  </note>
  <outline>
    <contour>
      <point x="272" y="376"/>
      <point x="334" y="452"/>
      <point x="334" y="531" type="curve" smooth="yes"/>
      <point x="334" y="610"/>
      <point x="272" y="675"/>
      <point x="181" y="675" type="curve" smooth="yes"/>
      <point x="88" y="675"/>
      <point x="25" y="610"/>
      <point x="25" y="531" type="curve" smooth="yes"/>
      <point x="25" y="452"/>
      <point x="88" y="376"/>
      <point x="181" y="376" type="curve" smooth="yes"/>
    </contour>
    <contour>
      <point x="133" y="436"/>
      <point x="96" y="473"/>
      <point x="96" y="525" type="curve" smooth="yes"/>
      <point x="96" y="577"/>
      <point x="133" y="613"/>
      <point x="180" y="613" type="curve" smooth="yes"/>
      <point x="225" y="613"/>
      <point x="263" y="577"/>
      <point x="263" y="525" type="curve" smooth="yes"/>
      <point x="263" y="473"/>
      <point x="225" y="436"/>
      <point x="180" y="436" type="curve" smooth="yes"/>
    </contour>
  </outline>
</glyph>
<glyph name="Hbar" format="1">
  <advance width="799"/>
  <unicode hex="0126"/>
  <note>
    Hbar
  </note>
  <outline>
    <contour>
      <point x="730" y="447" type="line" smooth="yes"/>
      <point x="752" y="447"/>
      <point x="773" y="470"/>
      <point x="773" y="490" type="curve" smooth="yes"/>
      <point x="773" y="500"/>
      <point x="763" y="509"/>
      <point x="750" y="509" type="curve" smooth="yes"/>
      <point x="58" y="509" type="line" smooth="yes"/>
      <point x="41" y="509"/>
      <point x="29" y="496"/>
      <point x="29" y="478" type="curve" smooth="yes"/>
      <point x="29" y="460"/>
      <point x="40" y="447"/>
      <point x="55" y="447" type="curve" smooth="yes"/>
    </contour>
    <component base="H"/>
  </outline>
</glyph>
<glyph name="Tbar" format="1">
  <advance width="701"/>
  <unicode hex="0166"/>
  <note>
    Tbar
  </note>
  <outline>
    <contour>
      <point x="515" y="327" type="line" smooth="yes"/>
      <point x="537" y="327"/>
      <point x="558" y="350"/>
      <point x="558" y="370" type="curve" smooth="yes"/>
      <point x="558" y="380"/>
      <point x="548" y="389"/>
      <point x="535" y="389" type="curve" smooth="yes"/>
      <point x="188" y="389" type="line" smooth="yes"/>
      <point x="171" y="389"/>
      <point x="159" y="376"/>
      <point x="159" y="358" type="curve" smooth="yes"/>
      <point x="159" y="340"/>
      <point x="170" y="327"/>
      <point x="185" y="327" type="curve" smooth="yes"/>
    </contour>
    <component base="T"/>
  </outline>
</glyph>
<glyph name="florin" format="1">
  <advance width="386"/>
  <unicode hex="0192"/>
  <note>
    florin
  </note>
  <outline>
    <contour>
      <point x="50" y="-207"/>
      <point x="183" y="-95"/>
      <point x="203" y="-5" type="curve" smooth="yes"/>
      <point x="235" y="138"/>
      <point x="238" y="174"/>
      <point x="265" y="317" type="curve" smooth="yes"/>
      <point x="268" y="335"/>
      <point x="280" y="342"/>
      <point x="306" y="343" type="curve" smooth="yes"/>
      <point x="368" y="346" type="line"/>
      <point x="375" y="346"/>
      <point x="394" y="376"/>
      <point x="394" y="387" type="curve" smooth="yes"/>
      <point x="394" y="395"/>
      <point x="389" y="402"/>
      <point x="383" y="402" type="curve" smooth="yes"/>
      <point x="349" y="402"/>
      <point x="339" y="399"/>
      <point x="305" y="399" type="curve" smooth="yes"/>
      <point x="296" y="399"/>
      <point x="286" y="401"/>
      <point x="288" y="415" type="curve" smooth="yes"/>
      <point x="292" y="439"/>
      <point x="297" y="466"/>
      <point x="302" y="490" type="curve" smooth="yes"/>
      <point x="317" y="555"/>
      <point x="325" y="622"/>
      <point x="358" y="622" type="curve" smooth="yes"/>
      <point x="384" y="622"/>
      <point x="396" y="596"/>
      <point x="406" y="569" type="curve" smooth="yes"/>
      <point x="416" y="541"/>
      <point x="423" y="513"/>
      <point x="449" y="513" type="curve" smooth="yes"/>
      <point x="478" y="513"/>
      <point x="496" y="552"/>
      <point x="496" y="587" type="curve" smooth="yes"/>
      <point x="496" y="631"/>
      <point x="447" y="663"/>
      <point x="386" y="663" type="curve" smooth="yes"/>
      <point x="291" y="663"/>
      <point x="185" y="597"/>
      <point x="145" y="436" type="curve" smooth="yes"/>
      <point x="139" y="412" type="line" smooth="yes"/>
      <point x="136" y="402"/>
      <point x="135" y="399"/>
      <point x="128" y="399" type="curve" smooth="yes"/>
      <point x="67" y="396" type="line" smooth="yes"/>
      <point x="43" y="395"/>
      <point x="30" y="370"/>
      <point x="30" y="360" type="curve" smooth="yes"/>
      <point x="30" y="346"/>
      <point x="34" y="341"/>
      <point x="49" y="341" type="curve" smooth="yes"/>
      <point x="108" y="342" type="line" smooth="yes"/>
      <point x="122" y="342"/>
      <point x="125" y="337"/>
      <point x="122" y="324" type="curve" smooth="yes"/>
      <point x="44" y="-59" type="line" smooth="yes"/>
      <point x="33" y="-115"/>
      <point x="8" y="-158"/>
      <point x="-19" y="-158" type="curve" smooth="yes"/>
      <point x="-44" y="-158"/>
      <point x="-57" y="-134"/>
      <point x="-72" y="-112" type="curve" smooth="yes"/>
      <point x="-85" y="-92"/>
      <point x="-103" y="-65"/>
      <point x="-116" y="-65" type="curve" smooth="yes"/>
      <point x="-143" y="-65"/>
      <point x="-170" y="-89"/>
      <point x="-170" y="-125" type="curve" smooth="yes"/>
      <point x="-170" y="-164"/>
      <point x="-130" y="-207"/>
      <point x="-26" y="-207" type="curve" smooth="yes"/>
    </contour>
  </outline>
</glyph>
<glyph name="uni019A" format="1">
  <advance width="317"/>
  <unicode hex="019A"/>
  <note>
    uni019A
  </note>
  <outline>
    <contour>
      <point x="264" y="310" type="line" smooth="yes"/>
      <point x="287" y="310"/>
      <point x="302" y="331"/>
      <point x="306" y="348" type="curve"/>
      <point x="306" y="350"/>
      <point x="307" y="351"/>
      <point x="307" y="353" type="curve" smooth="yes"/>
      <point x="307" y="363"/>
      <point x="297" y="372"/>
      <point x="284" y="372" type="curve" smooth="yes"/>
      <point x="39" y="372" type="line" smooth="yes"/>
      <point x="22" y="372"/>
      <point x="10" y="359"/>
      <point x="10" y="341" type="curve" smooth="yes"/>
      <point x="10" y="327"/>
      <point x="17" y="310"/>
      <point x="34" y="310" type="curve" smooth="yes"/>
    </contour>
    <component base="l" xOffset="11"/>
  </outline>
</glyph>
<glyph name="uni019B" format="1">
  <advance width="532"/>
  <unicode hex="019B"/>
  <note>
    uni019B
  </note>
  <outline>
    <contour>
      <point x="231" y="480" type="line"/>
      <point x="266" y="498" type="line"/>
      <point x="399" y="566" type="line"/>
      <point x="420" y="577"/>
      <point x="421" y="599"/>
      <point x="421" y="616" type="curve" smooth="yes"/>
      <point x="421" y="635"/>
      <point x="404" y="638"/>
      <point x="389" y="631" type="curve"/>
      <point x="241" y="555" type="line"/>
      <point x="219" y="544" type="line"/>
      <point x="85" y="476" type="line"/>
      <point x="69" y="467"/>
      <point x="66" y="454"/>
      <point x="66" y="430" type="curve" smooth="yes"/>
      <point x="66" y="411"/>
      <point x="81" y="405"/>
      <point x="103" y="416" type="curve"/>
    </contour>
    <component base="lambda"/>
  </outline>
</glyph>
<glyph name="uni023E" format="1">
  <advance width="701"/>
  <unicode hex="023E"/>
  <note>
    uni023E
  </note>
  <outline>
    <contour>
      <point x="169" y="-92"/>
      <point x="191" y="-89"/>
      <point x="204" y="-67" type="curve" smooth="yes"/>
      <point x="637" y="686" type="line"/>
      <point x="637" y="687"/>
      <point x="644" y="700"/>
      <point x="644" y="701" type="curve" smooth="yes"/>
      <point x="644" y="710"/>
      <point x="635" y="718"/>
      <point x="625" y="718" type="curve" smooth="yes"/>
      <point x="599" y="718"/>
      <point x="576" y="718"/>
      <point x="563" y="696" type="curve" smooth="yes"/>
      <point x="131" y="-55" type="line"/>
      <point x="125" y="-64"/>
      <point x="122" y="-71"/>
      <point x="122" y="-71" type="curve"/>
      <point x="122" y="-82"/>
      <point x="127" y="-92"/>
      <point x="143" y="-92" type="curve" smooth="yes"/>
    </contour>
    <component base="T"/>
  </outline>
</glyph>
<glyph name="uni0243" format="1">
  <advance width="643"/>
  <unicode hex="0243"/>
  <note>
    uni0243
  </note>
  <outline>
    <contour>
      <point x="326" y="160" type="line" smooth="yes"/>
      <point x="349" y="160"/>
      <point x="364" y="181"/>
      <point x="368" y="198" type="curve"/>
      <point x="368" y="200"/>
      <point x="369" y="201"/>
      <point x="369" y="203" type="curve" smooth="yes"/>
      <point x="369" y="213"/>
      <point x="359" y="222"/>
      <point x="346" y="222" type="curve" smooth="yes"/>
      <point x="76" y="222" type="line" smooth="yes"/>
      <point x="59" y="222"/>
      <point x="38" y="209"/>
      <point x="38" y="191" type="curve" smooth="yes"/>
      <point x="38" y="177"/>
      <point x="45" y="160"/>
      <point x="62" y="160" type="curve" smooth="yes"/>
    </contour>
    <component base="B" xOffset="8"/>
  </outline>
</glyph>
<glyph name="uni0280" format="1">
  <advance width="596"/>
  <unicode hex="0280"/>
  <note>
    uni0280
  </note>
  <outline>
    <contour>
      <point x="544" y="-13"/>
      <point x="577" y="0"/>
      <point x="577" y="22" type="curve" smooth="yes"/>
      <point x="577" y="31"/>
      <point x="567" y="33"/>
      <point x="560" y="34" type="curve" smooth="yes"/>
      <point x="545" y="36"/>
      <point x="507" y="59"/>
      <point x="486" y="81" type="curve" smooth="yes"/>
      <point x="457" y="112"/>
      <point x="412" y="164"/>
      <point x="391" y="201" type="curve" smooth="yes"/>
      <point x="386" y="209"/>
      <point x="389" y="215"/>
      <point x="396" y="217" type="curve" smooth="yes"/>
      <point x="438" y="229"/>
      <point x="475" y="267"/>
      <point x="475" y="320" type="curve" smooth="yes"/>
      <point x="475" y="391"/>
      <point x="403" y="427"/>
      <point x="284" y="427" type="curve" smooth="yes"/>
      <point x="224" y="427"/>
      <point x="192" y="418"/>
      <point x="154" y="418" type="curve" smooth="yes"/>
      <point x="112" y="418"/>
      <point x="97" y="427"/>
      <point x="46" y="427" type="curve" smooth="yes"/>
      <point x="35" y="427"/>
      <point x="29" y="421"/>
      <point x="29" y="412" type="curve" smooth="yes"/>
      <point x="29" y="404"/>
      <point x="34" y="396"/>
      <point x="45" y="395" type="curve" smooth="yes"/>
      <point x="74" y="392"/>
      <point x="81" y="385"/>
      <point x="81" y="368" type="curve" smooth="yes"/>
      <point x="81" y="67" type="line" smooth="yes"/>
      <point x="81" y="44"/>
      <point x="80" y="43"/>
      <point x="44" y="33" type="curve" smooth="yes"/>
      <point x="37" y="31"/>
      <point x="30" y="26"/>
      <point x="30" y="16" type="curve" smooth="yes"/>
      <point x="30" y="9"/>
      <point x="34" y="-1"/>
      <point x="45" y="-1" type="curve" smooth="yes"/>
      <point x="72" y="-1"/>
      <point x="123" y="1"/>
      <point x="147" y="1" type="curve" smooth="yes"/>
      <point x="175" y="1"/>
      <point x="257" y="0"/>
      <point x="283" y="0" type="curve" smooth="yes"/>
      <point x="289" y="0"/>
      <point x="297" y="5"/>
      <point x="297" y="12" type="curve" smooth="yes"/>
      <point x="297" y="23"/>
      <point x="288" y="27"/>
      <point x="281" y="28" type="curve" smooth="yes"/>
      <point x="238" y="34"/>
      <point x="228" y="44"/>
      <point x="228" y="63" type="curve" smooth="yes"/>
      <point x="228" y="164" type="line" smooth="yes"/>
      <point x="228" y="177"/>
      <point x="237" y="184"/>
      <point x="246" y="184" type="curve" smooth="yes"/>
      <point x="262" y="184"/>
      <point x="267" y="176"/>
      <point x="276" y="156" type="curve" smooth="yes"/>
      <point x="290" y="126"/>
      <point x="306" y="93"/>
      <point x="326" y="70" type="curve" smooth="yes"/>
      <point x="357" y="32"/>
      <point x="398" y="-13"/>
      <point x="478" y="-13" type="curve" smooth="yes"/>
    </contour>
    <contour>
      <point x="253" y="226"/>
      <point x="228" y="238"/>
      <point x="228" y="261" type="curve" smooth="yes"/>
      <point x="226" y="356" type="line" smooth="yes"/>
      <point x="225" y="380"/>
      <point x="252" y="387"/>
      <point x="270" y="387" type="curve" smooth="yes"/>
      <point x="301" y="387"/>
      <point x="329" y="363"/>
      <point x="329" y="309" type="curve" smooth="yes"/>
      <point x="329" y="249"/>
      <point x="313" y="226"/>
      <point x="270" y="226" type="curve" smooth="yes"/>
    </contour>
    <contour>
      <point x="254" y="474" type="move" name="top"/>
    </contour>
    <contour>
      <point x="281" y="-28" type="move" name="bottom"/>
    </contour>
  </outline>
</glyph>
<glyph name="uni0292" format="1">
  <advance width="459"/>
  <unicode hex="0292"/>
  <note>
    uni0292
  </note>
  <outline>
    <contour>
      <point x="348" y="-285"/>
      <point x="451" y="-131"/>
      <point x="451" y="-22" type="curve" smooth="yes"/>
      <point x="451" y="66"/>
      <point x="393" y="134"/>
      <point x="296" y="134" type="curve" smooth="yes"/>
      <point x="293" y="134"/>
      <point x="285" y="132"/>
      <point x="278" y="132" type="curve" smooth="yes"/>
      <point x="269" y="132"/>
      <point x="262" y="135"/>
      <point x="268" y="145" type="curve" smooth="yes"/>
      <point x="376" y="329" type="line" smooth="yes"/>
      <point x="390" y="352"/>
      <point x="403" y="366"/>
      <point x="419" y="385" type="curve"/>
      <point x="427" y="396"/>
      <point x="419" y="429"/>
      <point x="399" y="429" type="curve" smooth="yes"/>
      <point x="331" y="429"/>
      <point x="265" y="425"/>
      <point x="183" y="425" type="curve" smooth="yes"/>
      <point x="173" y="425"/>
      <point x="157" y="424"/>
      <point x="141" y="424" type="curve" smooth="yes"/>
      <point x="120" y="424"/>
      <point x="96" y="425"/>
      <point x="89" y="431" type="curve"/>
      <point x="83" y="437"/>
      <point x="77" y="441"/>
      <point x="69" y="441" type="curve" smooth="yes"/>
      <point x="57" y="441"/>
      <point x="48" y="429"/>
      <point x="48" y="414" type="curve" smooth="yes"/>
      <point x="48" y="350"/>
      <point x="34" y="296"/>
      <point x="27" y="275" type="curve" smooth="yes"/>
      <point x="24" y="266"/>
      <point x="31" y="254"/>
      <point x="38" y="254" type="curve" smooth="yes"/>
      <point x="44" y="254"/>
      <point x="55" y="257"/>
      <point x="63" y="268" type="curve" smooth="yes"/>
      <point x="72" y="280"/>
      <point x="106" y="338"/>
      <point x="118" y="350" type="curve" smooth="yes"/>
      <point x="132" y="364"/>
      <point x="150" y="373"/>
      <point x="169" y="373" type="curve" smooth="yes"/>
      <point x="184" y="373"/>
      <point x="198" y="373"/>
      <point x="213" y="373" type="curve" smooth="yes"/>
      <point x="230" y="373"/>
      <point x="227" y="366"/>
      <point x="224" y="361" type="curve"/>
      <point x="57" y="90" type="line"/>
      <point x="56" y="87"/>
      <point x="52" y="82"/>
      <point x="52" y="78" type="curve" smooth="yes"/>
      <point x="52" y="75"/>
      <point x="55" y="72"/>
      <point x="63" y="72" type="curve" smooth="yes"/>
      <point x="82" y="72"/>
      <point x="132" y="83"/>
      <point x="174" y="83" type="curve" smooth="yes"/>
      <point x="266" y="83"/>
      <point x="312" y="27"/>
      <point x="312" y="-52" type="curve" smooth="yes"/>
      <point x="312" y="-176"/>
      <point x="250" y="-239"/>
      <point x="187" y="-239" type="curve" smooth="yes"/>
      <point x="124" y="-239"/>
      <point x="97" y="-193"/>
      <point x="59" y="-145" type="curve" smooth="yes"/>
      <point x="52" y="-136"/>
      <point x="43" y="-130"/>
      <point x="33" y="-130" type="curve" smooth="yes"/>
      <point x="17" y="-130"/>
      <point x="10" y="-155"/>
      <point x="10" y="-177" type="curve" smooth="yes"/>
      <point x="10" y="-210"/>
      <point x="15" y="-239"/>
      <point x="39" y="-253" type="curve" smooth="yes"/>
      <point x="90" y="-283"/>
      <point x="142" y="-285"/>
      <point x="185" y="-285" type="curve" smooth="yes"/>
    </contour>
    <contour>
      <point x="222" y="440" type="move" name="top"/>
    </contour>
  </outline>
</glyph>
<glyph name="uni02AD" format="1">
  <advance width="493"/>
  <unicode hex="02AD"/>
  <note>
    uni02AD
  </note>
  <outline>
    <contour>
      <point x="64" y="283"/>
      <point x="105" y="294"/>
      <point x="105" y="318" type="curve" smooth="yes"/>
      <point x="105" y="472" type="line"/>
      <point x="388" y="472" type="line"/>
      <point x="388" y="304" type="line" smooth="yes"/>
      <point x="388" y="294"/>
      <point x="398" y="283"/>
      <point x="408" y="283" type="curve" smooth="yes"/>
      <point x="419" y="283"/>
      <point x="465" y="294"/>
      <point x="465" y="318" type="curve" smooth="yes"/>
      <point x="465" y="540" type="line" smooth="yes"/>
      <point x="465" y="549"/>
      <point x="454" y="554"/>
      <point x="445" y="554" type="curve" smooth="yes"/>
      <point x="63" y="554" type="line" smooth="yes"/>
      <point x="41" y="554"/>
      <point x="28" y="529"/>
      <point x="28" y="514" type="curve" smooth="yes"/>
      <point x="28" y="304" type="line" smooth="yes"/>
      <point x="28" y="294"/>
      <point x="41" y="283"/>
      <point x="50" y="283" type="curve" smooth="yes"/>
    </contour>
    <contour>
      <point x="64" y="-22"/>
      <point x="105" y="-11"/>
      <point x="105" y="13" type="curve" smooth="yes"/>
      <point x="105" y="167" type="line"/>
      <point x="388" y="167" type="line"/>
      <point x="388" y="-1" type="line" smooth="yes"/>
      <point x="388" y="-11"/>
      <point x="398" y="-22"/>
      <point x="408" y="-22" type="curve" smooth="yes"/>
      <point x="419" y="-22"/>
      <point x="465" y="-11"/>
      <point x="465" y="13" type="curve" smooth="yes"/>
      <point x="465" y="235" type="line" smooth="yes"/>
      <point x="465" y="244"/>
      <point x="454" y="249"/>
      <point x="445" y="249" type="curve" smooth="yes"/>
      <point x="63" y="249" type="line" smooth="yes"/>
      <point x="41" y="249"/>
      <point x="28" y="224"/>
      <point x="28" y="209" type="curve" smooth="yes"/>
      <point x="28" y="-1" type="line" smooth="yes"/>
      <point x="28" y="-11"/>
      <point x="41" y="-22"/>
      <point x="50" y="-22" type="curve" smooth="yes"/>
    </contour>
  </outline>
</glyph>
<glyph name="uni02D1" format="1">
  <advance width="245"/>
  <unicode hex="02D1"/>
  <note>
    uni02D1
  </note>
  <outline>
    <contour>
      <point x="123" y="232" type="line"/>
      <point x="224" y="394" type="line"/>
      <point x="22" y="394" type="line"/>
    </contour>
  </outline>
</glyph>
<glyph name="dotaccent" format="1">
  <advance width="245"/>
  <unicode hex="02D9"/>
  <note>
    dotaccent
  </note>
  <outline>
    <contour>
      <point x="170" y="488"/>
      <point x="208" y="526"/>
      <point x="208" y="572" type="curve" smooth="yes"/>
      <point x="208" y="621"/>
      <point x="170" y="659"/>
      <point x="121" y="659" type="curve" smooth="yes"/>
      <point x="75" y="659"/>
      <point x="37" y="621"/>
      <point x="37" y="572" type="curve" smooth="yes"/>
      <point x="37" y="526"/>
      <point x="75" y="488"/>
      <point x="121" y="488" type="curve" smooth="yes"/>
    </contour>
    <contour>
      <point x="121" y="440" type="move" name="_top"/>
    </contour>
  </outline>
</glyph>
<glyph name="acutecomb" format="1">
  <advance width="0"/>
  <unicode hex="0301"/>
  <note>
    acutecomb
  </note>
  <outline>
    <contour>
      <point x="-71" y="452"/>
      <point x="-62" y="457"/>
      <point x="-52" y="467" type="curve" smooth="yes"/>
      <point x="-7" y="512"/>
      <point x="37" y="563"/>
      <point x="79" y="610" type="curve" smooth="yes"/>
      <point x="87" y="619"/>
      <point x="89" y="628"/>
      <point x="89" y="635" type="curve" smooth="yes"/>
      <point x="89" y="652"/>
      <point x="61" y="660"/>
      <point x="28" y="660" type="curve" smooth="yes"/>
      <point x="2" y="660"/>
      <point x="-10" y="655"/>
      <point x="-21" y="633" type="curve" smooth="yes"/>
      <point x="-36" y="603"/>
      <point x="-69" y="525"/>
      <point x="-84" y="487" type="curve" smooth="yes"/>
      <point x="-88" y="477"/>
      <point x="-89" y="470"/>
      <point x="-89" y="465" type="curve" smooth="yes"/>
      <point x="-89" y="455"/>
      <point x="-84" y="452"/>
      <point x="-78" y="452" type="curve" smooth="yes"/>
    </contour>
    <contour>
      <point x="-51" y="440" type="move" name="_top"/>
    </contour>
  </outline>
</glyph>
<glyph name="uni0306" format="1">
  <advance width="0"/>
  <unicode hex="0306"/>
  <note>
    uni0306
  </note>
  <outline>
    <contour>
      <point x="103" y="466"/>
      <point x="130" y="552"/>
      <point x="130" y="590" type="curve" smooth="yes"/>
      <point x="130" y="615"/>
      <point x="117" y="626"/>
      <point x="105" y="626" type="curve" smooth="yes"/>
      <point x="93" y="626"/>
      <point x="86" y="618"/>
      <point x="83" y="605" type="curve" smooth="yes"/>
      <point x="74" y="566"/>
      <point x="47" y="553"/>
      <point x="0" y="553" type="curve" smooth="yes"/>
      <point x="-47" y="553"/>
      <point x="-74" y="566"/>
      <point x="-83" y="605" type="curve" smooth="yes"/>
      <point x="-86" y="618"/>
      <point x="-93" y="626"/>
      <point x="-105" y="626" type="curve" smooth="yes"/>
      <point x="-117" y="626"/>
      <point x="-130" y="615"/>
      <point x="-130" y="590" type="curve" smooth="yes"/>
      <point x="-130" y="552"/>
      <point x="-103" y="466"/>
      <point x="0" y="466" type="curve" smooth="yes"/>
    </contour>
    <contour>
      <point x="0" y="440" type="move" name="_top"/>
    </contour>
  </outline>
</glyph>
<glyph name="uni0307" format="1">
  <advance width="0"/>
  <unicode hex="0307"/>
  <note>
    uni0307
  </note>
  <outline>
    <contour>
      <point x="49" y="497"/>
      <point x="87" y="535"/>
      <point x="87" y="581" type="curve" smooth="yes"/>
      <point x="87" y="630"/>
      <point x="49" y="668"/>
      <point x="0" y="668" type="curve" smooth="yes"/>
      <point x="-46" y="668"/>
      <point x="-84" y="630"/>
      <point x="-84" y="581" type="curve" smooth="yes"/>
      <point x="-84" y="535"/>
      <point x="-46" y="497"/>
      <point x="0" y="497" type="curve" smooth="yes"/>
    </contour>
    <contour>
      <point x="0" y="440" type="move" name="_top"/>
    </contour>
  </outline>
</glyph>
<glyph name="uni0308" format="1">
  <advance width="0"/>
  <unicode hex="0308"/>
  <note>
    uni0308
  </note>
  <outline>
    <contour>
      <point x="142" y="491"/>
      <point x="177" y="526"/>
      <point x="177" y="567" type="curve" smooth="yes"/>
      <point x="177" y="611"/>
      <point x="142" y="644"/>
      <point x="97" y="644" type="curve" smooth="yes"/>
      <point x="55" y="644"/>
      <point x="21" y="611"/>
      <point x="21" y="567" type="curve" smooth="yes"/>
      <point x="21" y="526"/>
      <point x="55" y="491"/>
      <point x="97" y="491" type="curve" smooth="yes"/>
    </contour>
    <contour>
      <point x="-56" y="491"/>
      <point x="-21" y="526"/>
      <point x="-21" y="567" type="curve" smooth="yes"/>
      <point x="-21" y="611"/>
      <point x="-56" y="644"/>
      <point x="-101" y="644" type="curve" smooth="yes"/>
      <point x="-143" y="644"/>
      <point x="-177" y="611"/>
      <point x="-177" y="567" type="curve" smooth="yes"/>
      <point x="-177" y="526"/>
      <point x="-143" y="491"/>
      <point x="-101" y="491" type="curve" smooth="yes"/>
    </contour>
    <contour>
      <point x="0" y="440" type="move" name="_top"/>
    </contour>
  </outline>
</glyph>
<glyph name="uni0311" format="1">
  <advance width="0"/>
  <unicode hex="0311"/>
  <note>
    uni0311
  </note>
  <outline>
    <contour>
      <point x="-85" y="462"/>
      <point x="-79" y="470"/>
      <point x="-75" y="483" type="curve" smooth="yes"/>
      <point x="-64" y="520"/>
      <point x="-45" y="535"/>
      <point x="0" y="535" type="curve" smooth="yes"/>
      <point x="45" y="535"/>
      <point x="64" y="520"/>
      <point x="75" y="483" type="curve" smooth="yes"/>
      <point x="79" y="470"/>
      <point x="85" y="462"/>
      <point x="97" y="462" type="curve" smooth="yes"/>
      <point x="109" y="462"/>
      <point x="122" y="473"/>
      <point x="122" y="498" type="curve" smooth="yes"/>
      <point x="122" y="542"/>
      <point x="98" y="622"/>
      <point x="0" y="622" type="curve" smooth="yes"/>
      <point x="-98" y="622"/>
      <point x="-122" y="542"/>
      <point x="-122" y="498" type="curve" smooth="yes"/>
      <point x="-122" y="473"/>
      <point x="-109" y="462"/>
      <point x="-97" y="462" type="curve" smooth="yes"/>
    </contour>
    <contour>
      <point x="0" y="440" type="move" name="_top"/>
    </contour>
  </outline>
</glyph>
<glyph name="uni0329" format="1">
  <advance width="0"/>
  <unicode hex="0329"/>
  <note>
    uni0329
  </note>
  <outline>
    <contour>
      <point x="7" y="-253"/>
      <point x="33" y="-231"/>
      <point x="33" y="-213" type="curve" smooth="yes"/>
      <point x="33" y="-83" type="line" smooth="yes"/>
      <point x="33" y="-72"/>
      <point x="24" y="-58"/>
      <point x="9" y="-58" type="curve" smooth="yes"/>
      <point x="-4" y="-58"/>
      <point x="-34" y="-79"/>
      <point x="-34" y="-103" type="curve" smooth="yes"/>
      <point x="-34" y="-225" type="line" smooth="yes"/>
      <point x="-34" y="-238"/>
      <point x="-27" y="-253"/>
      <point x="-15" y="-253" type="curve" smooth="yes"/>
    </contour>
  </outline>
</glyph>
<glyph name="uni032A" format="1">
  <advance width="0"/>
  <unicode hex="032A"/>
  <note>
    uni032A
  </note>
  <outline>
    <contour>
      <point x="-104" y="-263"/>
      <point x="-70" y="-253"/>
      <point x="-70" y="-229" type="curve" smooth="yes"/>
      <point x="-70" y="-192" type="line"/>
      <point x="71" y="-192" type="line"/>
      <point x="71" y="-241" type="line" smooth="yes"/>
      <point x="71" y="-251"/>
      <point x="78" y="-263"/>
      <point x="89" y="-263" type="curve" smooth="yes"/>
      <point x="101" y="-263"/>
      <point x="135" y="-253"/>
      <point x="135" y="-229" type="curve" smooth="yes"/>
      <point x="135" y="-155" type="line" smooth="yes"/>
      <point x="135" y="-142"/>
      <point x="128" y="-128"/>
      <point x="110" y="-128" type="curve"/>
      <point x="-109" y="-128" type="line"/>
      <point x="-127" y="-128"/>
      <point x="-134" y="-142"/>
      <point x="-134" y="-155" type="curve"/>
      <point x="-134" y="-241" type="line" smooth="yes"/>
      <point x="-134" y="-251"/>
      <point x="-127" y="-263"/>
      <point x="-116" y="-263" type="curve" smooth="yes"/>
    </contour>
  </outline>
</glyph>
<glyph name="uni0331" format="1">
  <advance width="0"/>
  <unicode hex="0331"/>
  <note>
    uni0331
  </note>
  <outline>
    <contour>
      <point x="129" y="-161" type="line" smooth="yes"/>
      <point x="151" y="-161"/>
      <point x="172" y="-129"/>
      <point x="172" y="-94" type="curve" smooth="yes"/>
      <point x="172" y="-84"/>
      <point x="165" y="-75"/>
      <point x="152" y="-75" type="curve" smooth="yes"/>
      <point x="-132" y="-75" type="line" smooth="yes"/>
      <point x="-151" y="-75"/>
      <point x="-172" y="-102"/>
      <point x="-172" y="-142" type="curve" smooth="yes"/>
      <point x="-172" y="-152"/>
      <point x="-164" y="-161"/>
      <point x="-151" y="-161" type="curve" smooth="yes"/>
    </contour>
    <contour>
      <point x="0" y="-30" type="move" name="_bottom"/>
    </contour>
  </outline>
</glyph>
<glyph name="Alpha" format="1">
  <advance width="726"/>
  <unicode hex="0391"/>
  <note>
    Alpha
  </note>
  <outline>
    <component base="A"/>
    <contour>
      <point x="76" y="404" type="move" name="top"/>
    </contour>
    <contour>
      <point x="322" y="-30" type="move" name="bottom"/>
    </contour>
  </outline>
</glyph>
<glyph name="Eta" format="1">
  <advance width="799"/>
  <unicode hex="0397"/>
  <note>
    Eta
  </note>
  <outline>
    <component base="H"/>
    <contour>
      <point x="402" y="-30" type="move" name="bottom"/>
    </contour>
  </outline>
</glyph>
<glyph name="theta" format="1">
  <advance width="448"/>
  <unicode hex="03B8"/>
  <note>
    theta
  </note>
  <outline>
    <contour>
      <point x="322" y="-14"/>
      <point x="413" y="164"/>
      <point x="413" y="331" type="curve" smooth="yes"/>
      <point x="413" y="514"/>
      <point x="342" y="706"/>
      <point x="242" y="706" type="curve" smooth="yes"/>
      <point x="124" y="706"/>
      <point x="35" y="517"/>
      <point x="35" y="340" type="curve" smooth="yes"/>
      <point x="35" y="161"/>
      <point x="103" y="-14"/>
      <point x="198" y="-14" type="curve" smooth="yes"/>
    </contour>
    <contour>
      <point x="127" y="112"/>
      <point x="93" y="157"/>
      <point x="93" y="277" type="curve" smooth="yes"/>
      <point x="93" y="285"/>
      <point x="97" y="290"/>
      <point x="104" y="290" type="curve"/>
      <point x="330" y="290" type="line" smooth="yes"/>
      <point x="337" y="290"/>
      <point x="338" y="287"/>
      <point x="337" y="278" type="curve" smooth="yes"/>
      <point x="326" y="178"/>
      <point x="274" y="112"/>
      <point x="198" y="112" type="curve" smooth="yes"/>
    </contour>
    <contour>
      <point x="123" y="406"/>
      <point x="117" y="407"/>
      <point x="119" y="413" type="curve" smooth="yes"/>
      <point x="147" y="521"/>
      <point x="178" y="574"/>
      <point x="252" y="574" type="curve" smooth="yes"/>
      <point x="326" y="574"/>
      <point x="352" y="541"/>
      <point x="352" y="443" type="curve" smooth="yes"/>
      <point x="352" y="416"/>
      <point x="349" y="407"/>
      <point x="337" y="407" type="curve" smooth="yes"/>
      <point x="127" y="406" type="line" smooth="yes"/>
    </contour>
  </outline>
</glyph>
<glyph name="uni03F2" format="1">
  <advance width="428"/>
  <unicode hex="03F2"/>
  <note>
    uni03F2
  </note>
  <outline>
    <contour>
      <point x="305" y="-14"/>
      <point x="369" y="22"/>
      <point x="418" y="91" type="curve"/>
      <point x="387" y="117" type="line"/>
      <point x="362" y="84"/>
      <point x="330" y="68"/>
      <point x="289" y="66" type="curve" smooth="yes"/>
      <point x="220" y="63"/>
      <point x="171" y="118"/>
      <point x="171" y="227" type="curve" smooth="yes"/>
      <point x="171" y="321"/>
      <point x="216" y="380"/>
      <point x="274" y="380" type="curve" smooth="yes"/>
      <point x="306" y="380"/>
      <point x="342" y="362"/>
      <point x="377" y="322" type="curve"/>
      <point x="410" y="344" type="line"/>
      <point x="370" y="407"/>
      <point x="310" y="436"/>
      <point x="248" y="436" type="curve" smooth="yes"/>
      <point x="127" y="436"/>
      <point x="20" y="354"/>
      <point x="20" y="203" type="curve" smooth="yes"/>
      <point x="20" y="69"/>
      <point x="105" y="-14"/>
      <point x="240" y="-14" type="curve" smooth="yes"/>
    </contour>
  </outline>
</glyph>
<glyph name="uni03FB" format="1">
  <advance width="692"/>
  <unicode hex="03FB"/>
  <note>
    uni03FB
  </note>
  <outline>
    <contour>
      <point x="58" y="-283"/>
      <point x="94" y="-281"/>
      <point x="130" y="-281" type="curve" smooth="yes"/>
      <point x="160" y="-281"/>
      <point x="166" y="-282"/>
      <point x="206" y="-282" type="curve" smooth="yes"/>
      <point x="212" y="-282"/>
      <point x="222" y="-278"/>
      <point x="222" y="-271" type="curve" smooth="yes"/>
      <point x="222" y="-261"/>
      <point x="210" y="-258"/>
      <point x="204" y="-257" type="curve" smooth="yes"/>
      <point x="159" y="-250"/>
      <point x="145" y="-229"/>
      <point x="146" y="-204" type="curve" smooth="yes"/>
      <point x="155" y="242" type="line" smooth="yes"/>
      <point x="155" y="257"/>
      <point x="164" y="261"/>
      <point x="169" y="251" type="curve" smooth="yes"/>
      <point x="209" y="172"/>
      <point x="249" y="91"/>
      <point x="296" y="4" type="curve" smooth="yes"/>
      <point x="304" y="-11"/>
      <point x="324" y="-11"/>
      <point x="331" y="6" type="curve" smooth="yes"/>
      <point x="440" y="255" type="line" smooth="yes"/>
      <point x="444" y="264"/>
      <point x="447" y="265"/>
      <point x="448" y="255" type="curve"/>
      <point x="455" y="62" type="line"/>
      <point x="458" y="39"/>
      <point x="443" y="38"/>
      <point x="404" y="25" type="curve" smooth="yes"/>
      <point x="398" y="24"/>
      <point x="391" y="19"/>
      <point x="391" y="10" type="curve" smooth="yes"/>
      <point x="391" y="4"/>
      <point x="397" y="-1"/>
      <point x="404" y="-1" type="curve" smooth="yes"/>
      <point x="433" y="-1"/>
      <point x="494" y="2"/>
      <point x="523" y="2" type="curve" smooth="yes"/>
      <point x="549" y="2"/>
      <point x="624" y="0"/>
      <point x="651" y="0" type="curve" smooth="yes"/>
      <point x="656" y="0"/>
      <point x="662" y="4"/>
      <point x="662" y="11" type="curve" smooth="yes"/>
      <point x="662" y="21"/>
      <point x="653" y="25"/>
      <point x="644" y="27" type="curve" smooth="yes"/>
      <point x="618" y="36"/>
      <point x="600" y="45"/>
      <point x="598" y="64" type="curve"/>
      <point x="583" y="309" type="line" smooth="yes"/>
      <point x="580" y="354"/>
      <point x="594" y="376"/>
      <point x="630" y="387" type="curve" smooth="yes"/>
      <point x="639" y="390"/>
      <point x="652" y="390"/>
      <point x="652" y="401" type="curve" smooth="yes"/>
      <point x="652" y="410"/>
      <point x="645" y="413"/>
      <point x="632" y="413" type="curve" smooth="yes"/>
      <point x="478" y="414" type="line" smooth="yes"/>
      <point x="470" y="414"/>
      <point x="462" y="411"/>
      <point x="458" y="402" type="curve" smooth="yes"/>
      <point x="355" y="190" type="line" smooth="yes"/>
      <point x="352" y="184"/>
      <point x="347" y="184"/>
      <point x="343" y="190" type="curve" smooth="yes"/>
      <point x="310" y="240"/>
      <point x="282" y="296"/>
      <point x="253" y="349" type="curve" smooth="yes"/>
      <point x="245" y="364"/>
      <point x="236" y="381"/>
      <point x="232" y="399" type="curve" smooth="yes"/>
      <point x="230" y="408"/>
      <point x="222" y="421"/>
      <point x="203" y="421" type="curve"/>
      <point x="66" y="423" type="line" smooth="yes"/>
      <point x="54" y="423"/>
      <point x="45" y="419"/>
      <point x="45" y="411" type="curve" smooth="yes"/>
      <point x="45" y="402"/>
      <point x="53" y="398"/>
      <point x="65" y="395" type="curve" smooth="yes"/>
      <point x="109" y="385"/>
      <point x="119" y="370"/>
      <point x="117" y="326" type="curve" smooth="yes"/>
      <point x="87" y="-203" type="line" smooth="yes"/>
      <point x="85" y="-243"/>
      <point x="71" y="-253"/>
      <point x="48" y="-260" type="curve" smooth="yes"/>
      <point x="41" y="-262"/>
      <point x="30" y="-263"/>
      <point x="30" y="-272" type="curve" smooth="yes"/>
      <point x="30" y="-278"/>
      <point x="34" y="-283"/>
      <point x="45" y="-283" type="curve" smooth="yes"/>
    </contour>
  </outline>
</glyph>
<glyph name="uni040B" format="1">
  <advance width="888"/>
  <unicode hex="040B"/>
  <note>
    uni040B
  </note>
  <outline>
    <contour>
      <point x="222" y="-3"/>
      <point x="293" y="2"/>
      <point x="333" y="2" type="curve" smooth="yes"/>
      <point x="372" y="2"/>
      <point x="441" y="-2"/>
      <point x="483" y="-2" type="curve" smooth="yes"/>
      <point x="493" y="-2"/>
      <point x="502" y="3"/>
      <point x="502" y="13" type="curve" smooth="yes"/>
      <point x="502" y="26"/>
      <point x="492" y="31"/>
      <point x="480" y="34" type="curve" smooth="yes"/>
      <point x="436" y="46"/>
      <point x="420" y="61"/>
      <point x="420" y="98" type="curve" smooth="yes"/>
      <point x="420" y="304" type="line" smooth="yes"/>
      <point x="420" y="315"/>
      <point x="423" y="317"/>
      <point x="429" y="322" type="curve" smooth="yes"/>
      <point x="443" y="333"/>
      <point x="473" y="341"/>
      <point x="513" y="341" type="curve" smooth="yes"/>
      <point x="575" y="341"/>
      <point x="606" y="292"/>
      <point x="606" y="208" type="curve" smooth="yes"/>
      <point x="606" y="97" type="line" smooth="yes"/>
      <point x="606" y="56"/>
      <point x="585" y="43"/>
      <point x="545" y="34" type="curve" smooth="yes"/>
      <point x="533" y="31"/>
      <point x="523" y="24"/>
      <point x="523" y="12" type="curve" smooth="yes"/>
      <point x="523" y="3"/>
      <point x="536" y="-3"/>
      <point x="544" y="-3" type="curve" smooth="yes"/>
      <point x="588" y="-3"/>
      <point x="649" y="2"/>
      <point x="689" y="2" type="curve" smooth="yes"/>
      <point x="728" y="2"/>
      <point x="807" y="-2"/>
      <point x="849" y="-2" type="curve" smooth="yes"/>
      <point x="859" y="-2"/>
      <point x="868" y="3"/>
      <point x="868" y="13" type="curve" smooth="yes"/>
      <point x="868" y="26"/>
      <point x="858" y="30"/>
      <point x="846" y="34" type="curve"/>
      <point x="794" y="49"/>
      <point x="776" y="61"/>
      <point x="776" y="98" type="curve" smooth="yes"/>
      <point x="776" y="212" type="line" smooth="yes"/>
      <point x="776" y="321"/>
      <point x="702" y="401"/>
      <point x="570" y="401" type="curve" smooth="yes"/>
      <point x="514" y="401"/>
      <point x="471" y="390"/>
      <point x="442" y="376" type="curve" smooth="yes"/>
      <point x="434" y="372"/>
      <point x="428" y="369"/>
      <point x="426" y="369" type="curve" smooth="yes"/>
      <point x="421" y="369"/>
      <point x="420" y="372"/>
      <point x="420" y="386" type="curve" smooth="yes"/>
      <point x="420" y="546" type="line" smooth="yes"/>
      <point x="420" y="575"/>
      <point x="444" y="593"/>
      <point x="477" y="592" type="curve" smooth="yes"/>
      <point x="508" y="592" type="line" smooth="yes"/>
      <point x="565" y="592"/>
      <point x="591" y="568"/>
      <point x="608" y="515" type="curve" smooth="yes"/>
      <point x="617" y="487"/>
      <point x="625" y="476"/>
      <point x="638" y="476" type="curve" smooth="yes"/>
      <point x="651" y="476"/>
      <point x="655" y="489"/>
      <point x="655" y="513" type="curve" smooth="yes"/>
      <point x="655" y="534" type="line" smooth="yes"/>
      <point x="655" y="569"/>
      <point x="664" y="617"/>
      <point x="677" y="666" type="curve" smooth="yes"/>
      <point x="679" y="674"/>
      <point x="680" y="682"/>
      <point x="680" y="688" type="curve" smooth="yes"/>
      <point x="680" y="700"/>
      <point x="676" y="708"/>
      <point x="665" y="708" type="curve" smooth="yes"/>
      <point x="645" y="708"/>
      <point x="632" y="683"/>
      <point x="606" y="667" type="curve" smooth="yes"/>
      <point x="594" y="660"/>
      <point x="566" y="650"/>
      <point x="530" y="650" type="curve" smooth="yes"/>
      <point x="474" y="650"/>
      <point x="418" y="650"/>
      <point x="362" y="650" type="curve" smooth="yes"/>
      <point x="313" y="650"/>
      <point x="269" y="650"/>
      <point x="220" y="650" type="curve" smooth="yes"/>
      <point x="182" y="650"/>
      <point x="146" y="653"/>
      <point x="131" y="669" type="curve" smooth="yes"/>
      <point x="118" y="683"/>
      <point x="110" y="708"/>
      <point x="97" y="708" type="curve" smooth="yes"/>
      <point x="81" y="708"/>
      <point x="69" y="699"/>
      <point x="67" y="678" type="curve" smooth="yes"/>
      <point x="62" y="621"/>
      <point x="51" y="578"/>
      <point x="25" y="526" type="curve" smooth="yes"/>
      <point x="21" y="518"/>
      <point x="18" y="507"/>
      <point x="18" y="499" type="curve" smooth="yes"/>
      <point x="18" y="490"/>
      <point x="22" y="481"/>
      <point x="34" y="481" type="curve" smooth="yes"/>
      <point x="55" y="481"/>
      <point x="81" y="519"/>
      <point x="92" y="534" type="curve" smooth="yes"/>
      <point x="116" y="566"/>
      <point x="159" y="592"/>
      <point x="203" y="592" type="curve" smooth="yes"/>
      <point x="205" y="592" type="line" smooth="yes"/>
      <point x="216" y="592"/>
      <point x="227" y="591"/>
      <point x="237" y="585" type="curve" smooth="yes"/>
      <point x="246" y="580"/>
      <point x="250" y="572"/>
      <point x="250" y="546" type="curve" smooth="yes"/>
      <point x="250" y="97" type="line" smooth="yes"/>
      <point x="250" y="56"/>
      <point x="230" y="45"/>
      <point x="179" y="34" type="curve" smooth="yes"/>
      <point x="167" y="31"/>
      <point x="157" y="24"/>
      <point x="157" y="12" type="curve" smooth="yes"/>
      <point x="157" y="3"/>
      <point x="170" y="-3"/>
      <point x="178" y="-3" type="curve" smooth="yes"/>
    </contour>
  </outline>
</glyph>
<glyph name="uni0414" format="1">
  <advance width="730"/>
  <unicode hex="0414"/>
  <note>
    uni0414
  </note>
  <outline>
    <contour>
      <point x="89" y="-205"/>
      <point x="96" y="-186"/>
      <point x="97" y="-162" type="curve" smooth="yes"/>
      <point x="102" y="-61"/>
      <point x="114" y="0"/>
      <point x="194" y="0" type="curve" smooth="yes"/>
      <point x="536" y="0" type="line" smooth="yes"/>
      <point x="614" y="0"/>
      <point x="627" y="-58"/>
      <point x="634" y="-162" type="curve" smooth="yes"/>
      <point x="636" y="-186"/>
      <point x="641" y="-205"/>
      <point x="658" y="-205" type="curve" smooth="yes"/>
      <point x="677" y="-205"/>
      <point x="686" y="-191"/>
      <point x="688" y="-157" type="curve" smooth="yes"/>
      <point x="692" y="-80"/>
      <point x="715" y="12"/>
      <point x="715" y="36" type="curve" smooth="yes"/>
      <point x="715" y="44"/>
      <point x="711" y="51"/>
      <point x="699" y="52" type="curve" smooth="yes"/>
      <point x="662" y="54"/>
      <point x="625" y="70"/>
      <point x="625" y="120" type="curve"/>
      <point x="625" y="550" type="line" smooth="yes"/>
      <point x="625" y="590"/>
      <point x="635" y="602"/>
      <point x="690" y="618" type="curve"/>
      <point x="702" y="622"/>
      <point x="709" y="626"/>
      <point x="709" y="639" type="curve" smooth="yes"/>
      <point x="709" y="649"/>
      <point x="703" y="654"/>
      <point x="693" y="654" type="curve" smooth="yes"/>
      <point x="651" y="654"/>
      <point x="577" y="650"/>
      <point x="538" y="650" type="curve" smooth="yes"/>
      <point x="303" y="650"/>
      <point x="371" y="650"/>
      <point x="303" y="650" type="curve" smooth="yes"/>
      <point x="263" y="650"/>
      <point x="189" y="655"/>
      <point x="145" y="655" type="curve" smooth="yes"/>
      <point x="137" y="655"/>
      <point x="127" y="649"/>
      <point x="127" y="640" type="curve" smooth="yes"/>
      <point x="127" y="628"/>
      <point x="134" y="621"/>
      <point x="146" y="618" type="curve" smooth="yes"/>
      <point x="211" y="603"/>
      <point x="239" y="591"/>
      <point x="239" y="551" type="curve" smooth="yes"/>
      <point x="239" y="213"/>
      <point x="188" y="52"/>
      <point x="31" y="52" type="curve"/>
      <point x="19" y="51"/>
      <point x="15" y="44"/>
      <point x="15" y="36" type="curve" smooth="yes"/>
      <point x="15" y="12"/>
      <point x="38" y="-80"/>
      <point x="42" y="-157" type="curve" smooth="yes"/>
      <point x="44" y="-191"/>
      <point x="53" y="-205"/>
      <point x="72" y="-205" type="curve" smooth="yes"/>
    </contour>
    <contour>
      <point x="187" y="45"/>
      <point x="186" y="55"/>
      <point x="193" y="64" type="curve" smooth="yes"/>
      <point x="261" y="145"/>
      <point x="293" y="313"/>
      <point x="293" y="551" type="curve" smooth="yes"/>
      <point x="293" y="581"/>
      <point x="303" y="605"/>
      <point x="352" y="605" type="curve" smooth="yes"/>
      <point x="389" y="605" type="line" smooth="yes"/>
      <point x="443" y="605"/>
      <point x="455" y="581"/>
      <point x="455" y="538" type="curve" smooth="yes"/>
      <point x="456" y="93" type="line" smooth="yes"/>
      <point x="456" y="62"/>
      <point x="445" y="45"/>
      <point x="406" y="45" type="curve" smooth="yes"/>
      <point x="203" y="45" type="line" smooth="yes"/>
    </contour>
  </outline>
</glyph>
<glyph name="uni0434" format="1">
  <advance width="600"/>
  <unicode hex="0434"/>
  <note>
    uni0434
  </note>
  <outline>
    <contour>
      <point x="93" y="-156"/>
      <point x="104" y="-142"/>
      <point x="104" y="-123" type="curve" smooth="yes"/>
      <point x="104" y="-108"/>
      <point x="103" y="-94"/>
      <point x="103" y="-82" type="curve" smooth="yes"/>
      <point x="103" y="-30"/>
      <point x="120" y="0"/>
      <point x="169" y="0" type="curve" smooth="yes"/>
      <point x="405" y="0" type="line" smooth="yes"/>
      <point x="454" y="0"/>
      <point x="472" y="-32"/>
      <point x="472" y="-73" type="curve" smooth="yes"/>
      <point x="472" y="-99"/>
      <point x="470" y="-110"/>
      <point x="470" y="-123" type="curve" smooth="yes"/>
      <point x="470" y="-142"/>
      <point x="481" y="-156"/>
      <point x="494" y="-156" type="curve" smooth="yes"/>
      <point x="508" y="-156"/>
      <point x="519" y="-145"/>
      <point x="520" y="-120" type="curve"/>
      <point x="524" y="-16"/>
      <point x="538" y="5"/>
      <point x="546" y="28" type="curve"/>
      <point x="547" y="31"/>
      <point x="547" y="33"/>
      <point x="547" y="34" type="curve" smooth="yes"/>
      <point x="547" y="41"/>
      <point x="539" y="43"/>
      <point x="530" y="43" type="curve" smooth="yes"/>
      <point x="520" y="43"/>
      <point x="508" y="41"/>
      <point x="502" y="41" type="curve" smooth="yes"/>
      <point x="481" y="41"/>
      <point x="475" y="58"/>
      <point x="475" y="87" type="curve"/>
      <point x="475" y="355" type="line" smooth="yes"/>
      <point x="475" y="382"/>
      <point x="492" y="386"/>
      <point x="512" y="392" type="curve"/>
      <point x="523" y="396"/>
      <point x="532" y="402"/>
      <point x="532" y="413" type="curve" smooth="yes"/>
      <point x="532" y="422"/>
      <point x="523" y="428"/>
      <point x="515" y="428" type="curve" smooth="yes"/>
      <point x="475" y="428"/>
      <point x="438" y="423"/>
      <point x="403" y="423" type="curve" smooth="yes"/>
      <point x="232" y="423" type="line" smooth="yes"/>
      <point x="197" y="423"/>
      <point x="157" y="428"/>
      <point x="117" y="428" type="curve" smooth="yes"/>
      <point x="109" y="428"/>
      <point x="97" y="422"/>
      <point x="97" y="413" type="curve" smooth="yes"/>
      <point x="97" y="400"/>
      <point x="107" y="397"/>
      <point x="124" y="392" type="curve" smooth="yes"/>
      <point x="149" y="385"/>
      <point x="164" y="382"/>
      <point x="164" y="348" type="curve" smooth="yes"/>
      <point x="164" y="181"/>
      <point x="134" y="40"/>
      <point x="79" y="40" type="curve" smooth="yes"/>
      <point x="67" y="40"/>
      <point x="54" y="44"/>
      <point x="47" y="44" type="curve" smooth="yes"/>
      <point x="38" y="44"/>
      <point x="33" y="33"/>
      <point x="33" y="27" type="curve" smooth="yes"/>
      <point x="33" y="9"/>
      <point x="51" y="-61"/>
      <point x="53" y="-120" type="curve"/>
      <point x="55" y="-145"/>
      <point x="66" y="-156"/>
      <point x="80" y="-156" type="curve" smooth="yes"/>
    </contour>
    <contour>
      <point x="189" y="47"/>
      <point x="177" y="47"/>
      <point x="177" y="59" type="curve" smooth="yes"/>
      <point x="177" y="65"/>
      <point x="180" y="70"/>
      <point x="183" y="80" type="curve" smooth="yes"/>
      <point x="207" y="152"/>
      <point x="220" y="267"/>
      <point x="220" y="342" type="curve" smooth="yes"/>
      <point x="220" y="357"/>
      <point x="228" y="376"/>
      <point x="249" y="376" type="curve" smooth="yes"/>
      <point x="296" y="376" type="line" smooth="yes"/>
      <point x="316" y="376"/>
      <point x="330" y="371"/>
      <point x="330" y="344" type="curve" smooth="yes"/>
      <point x="330" y="70" type="line" smooth="yes"/>
      <point x="330" y="57"/>
      <point x="327" y="47"/>
      <point x="310" y="47" type="curve" smooth="yes"/>
      <point x="201" y="47" type="line" smooth="yes"/>
    </contour>
  </outline>
</glyph>
<glyph name="uni043B" format="1">
  <advance width="552"/>
  <unicode hex="043B"/>
  <note>
    uni043B
  </note>
  <outline>
    <contour>
      <point x="193" y="-14"/>
      <point x="218" y="211"/>
      <point x="218" y="341" type="curve" smooth="yes"/>
      <point x="218" y="356"/>
      <point x="226" y="375"/>
      <point x="247" y="375" type="curve" smooth="yes"/>
      <point x="296" y="375" type="line" smooth="yes"/>
      <point x="316" y="375"/>
      <point x="330" y="370"/>
      <point x="330" y="343" type="curve" smooth="yes"/>
      <point x="330" y="70" type="line" smooth="yes"/>
      <point x="330" y="43"/>
      <point x="316" y="39"/>
      <point x="296" y="33" type="curve"/>
      <point x="285" y="29"/>
      <point x="277" y="23"/>
      <point x="277" y="12" type="curve" smooth="yes"/>
      <point x="277" y="3"/>
      <point x="285" y="-3"/>
      <point x="293" y="-3" type="curve" smooth="yes"/>
      <point x="333" y="-3"/>
      <point x="368" y="2"/>
      <point x="403" y="2" type="curve" smooth="yes"/>
      <point x="438" y="2"/>
      <point x="475" y="-3"/>
      <point x="515" y="-3" type="curve" smooth="yes"/>
      <point x="523" y="-3"/>
      <point x="532" y="3"/>
      <point x="532" y="12" type="curve" smooth="yes"/>
      <point x="532" y="23"/>
      <point x="523" y="29"/>
      <point x="512" y="33" type="curve"/>
      <point x="492" y="39"/>
      <point x="475" y="43"/>
      <point x="475" y="70" type="curve" smooth="yes"/>
      <point x="475" y="355" type="line" smooth="yes"/>
      <point x="475" y="382"/>
      <point x="492" y="386"/>
      <point x="512" y="392" type="curve"/>
      <point x="523" y="396"/>
      <point x="532" y="402"/>
      <point x="532" y="413" type="curve" smooth="yes"/>
      <point x="532" y="422"/>
      <point x="523" y="428"/>
      <point x="515" y="428" type="curve" smooth="yes"/>
      <point x="475" y="428"/>
      <point x="438" y="423"/>
      <point x="403" y="423" type="curve" smooth="yes"/>
      <point x="232" y="423" type="line" smooth="yes"/>
      <point x="197" y="423"/>
      <point x="157" y="428"/>
      <point x="117" y="428" type="curve" smooth="yes"/>
      <point x="109" y="428"/>
      <point x="97" y="422"/>
      <point x="97" y="413" type="curve" smooth="yes"/>
      <point x="97" y="400"/>
      <point x="107" y="397"/>
      <point x="124" y="392" type="curve" smooth="yes"/>
      <point x="149" y="385"/>
      <point x="172" y="377"/>
      <point x="172" y="343" type="curve" smooth="yes"/>
      <point x="172" y="245"/>
      <point x="151" y="77"/>
      <point x="117" y="77" type="curve" smooth="yes"/>
      <point x="108" y="77"/>
      <point x="98" y="87"/>
      <point x="86" y="99" type="curve" smooth="yes"/>
      <point x="75" y="109"/>
      <point x="58" y="117"/>
      <point x="42" y="117" type="curve" smooth="yes"/>
      <point x="11" y="117"/>
      <point x="-7" y="87"/>
      <point x="-7" y="58" type="curve" smooth="yes"/>
      <point x="-7" y="19"/>
      <point x="24" y="-14"/>
      <point x="79" y="-14" type="curve" smooth="yes"/>
    </contour>
  </outline>
</glyph>
<glyph name="uni044B" format="1">
  <advance width="743"/>
  <unicode hex="044B"/>
  <note>
    uni044B
  </note>
  <outline>
    <component base="uni044C"/>
    <component base="uni026A" xOffset="427"/>
    <contour>
      <point x="380" y="440" type="move" name="top"/>
    </contour>
  </outline>
</glyph>
<glyph name="uni044D" format="1">
  <advance width="427"/>
  <unicode hex="044D"/>
  <note>
    uni044D
  </note>
  <outline>
    <contour>
      <point x="310" y="-15"/>
      <point x="406" y="94"/>
      <point x="406" y="218" type="curve" smooth="yes"/>
      <point x="406" y="355"/>
      <point x="313" y="436"/>
      <point x="215" y="436" type="curve" smooth="yes"/>
      <point x="124" y="436"/>
      <point x="90" y="417"/>
      <point x="61" y="402" type="curve" smooth="yes"/>
      <point x="51" y="397"/>
      <point x="41" y="394"/>
      <point x="37" y="380" type="curve" smooth="yes"/>
      <point x="27" y="341"/>
      <point x="24" y="327"/>
      <point x="24" y="293" type="curve" smooth="yes"/>
      <point x="24" y="272"/>
      <point x="29" y="262"/>
      <point x="40" y="262" type="curve" smooth="yes"/>
      <point x="58" y="262"/>
      <point x="70" y="312"/>
      <point x="94" y="340" type="curve" smooth="yes"/>
      <point x="109" y="357"/>
      <point x="135" y="381"/>
      <point x="167" y="381" type="curve" smooth="yes"/>
      <point x="229" y="381"/>
      <point x="252" y="325"/>
      <point x="257" y="254" type="curve" smooth="yes"/>
      <point x="258" y="243"/>
      <point x="254" y="234"/>
      <point x="252" y="232" type="curve" smooth="yes"/>
      <point x="245" y="226"/>
      <point x="233" y="220"/>
      <point x="224" y="220" type="curve" smooth="yes"/>
      <point x="202" y="220"/>
      <point x="182" y="228"/>
      <point x="163" y="235" type="curve" smooth="yes"/>
      <point x="145" y="241"/>
      <point x="128" y="247"/>
      <point x="110" y="247" type="curve" smooth="yes"/>
      <point x="79" y="247"/>
      <point x="28" y="204"/>
      <point x="28" y="188" type="curve" smooth="yes"/>
      <point x="28" y="180"/>
      <point x="35" y="172"/>
      <point x="42" y="172" type="curve" smooth="yes"/>
      <point x="51" y="172"/>
      <point x="79" y="191"/>
      <point x="109" y="191" type="curve" smooth="yes"/>
      <point x="130" y="191"/>
      <point x="146" y="181"/>
      <point x="164" y="174" type="curve" smooth="yes"/>
      <point x="176" y="169"/>
      <point x="188" y="165"/>
      <point x="202" y="165" type="curve" smooth="yes"/>
      <point x="219" y="165"/>
      <point x="240" y="172"/>
      <point x="254" y="185" type="curve"/>
      <point x="255" y="178"/>
      <point x="255" y="166"/>
      <point x="255" y="158" type="curve"/>
      <point x="245" y="80"/>
      <point x="214" y="37"/>
      <point x="170" y="37" type="curve" smooth="yes"/>
      <point x="135" y="37"/>
      <point x="106" y="55"/>
      <point x="75" y="94" type="curve" smooth="yes"/>
      <point x="58" y="115"/>
      <point x="52" y="136"/>
      <point x="37" y="136" type="curve" smooth="yes"/>
      <point x="27" y="136"/>
      <point x="21" y="123"/>
      <point x="21" y="101" type="curve" smooth="yes"/>
      <point x="21" y="61"/>
      <point x="28" y="39"/>
      <point x="50" y="25" type="curve" smooth="yes"/>
      <point x="99" y="-6"/>
      <point x="123" y="-15"/>
      <point x="176" y="-15" type="curve" smooth="yes"/>
    </contour>
    <contour>
      <point x="203" y="440" type="move" name="top"/>
    </contour>
  </outline>
</glyph>
<glyph name="uni044E" format="1">
  <advance width="746"/>
  <unicode hex="044E"/>
  <note>
    uni044E
  </note>
  <outline>
    <contour>
      <point x="648" y="-14"/>
      <point x="726" y="95"/>
      <point x="726" y="226" type="curve" smooth="yes"/>
      <point x="726" y="339"/>
      <point x="633" y="437"/>
      <point x="516" y="437" type="curve" smooth="yes"/>
      <point x="408" y="437"/>
      <point x="315" y="355"/>
      <point x="297" y="244" type="curve" smooth="yes"/>
      <point x="296" y="235"/>
      <point x="292" y="231"/>
      <point x="284" y="231" type="curve" smooth="yes"/>
      <point x="248" y="231" type="line" smooth="yes"/>
      <point x="240" y="231"/>
      <point x="235" y="236"/>
      <point x="235" y="244" type="curve" smooth="yes"/>
      <point x="235" y="355" type="line" smooth="yes"/>
      <point x="235" y="372"/>
      <point x="245" y="381"/>
      <point x="283" y="393" type="curve"/>
      <point x="294" y="397"/>
      <point x="301" y="401"/>
      <point x="301" y="412" type="curve" smooth="yes"/>
      <point x="301" y="421"/>
      <point x="295" y="426"/>
      <point x="286" y="426" type="curve" smooth="yes"/>
      <point x="248" y="426"/>
      <point x="196" y="422"/>
      <point x="161" y="422" type="curve" smooth="yes"/>
      <point x="126" y="422"/>
      <point x="80" y="427"/>
      <point x="41" y="427" type="curve" smooth="yes"/>
      <point x="33" y="427"/>
      <point x="25" y="421"/>
      <point x="25" y="413" type="curve" smooth="yes"/>
      <point x="25" y="403"/>
      <point x="31" y="396"/>
      <point x="42" y="393" type="curve" smooth="yes"/>
      <point x="78" y="384"/>
      <point x="90" y="377"/>
      <point x="90" y="356" type="curve" smooth="yes"/>
      <point x="90" y="68" type="line"/>
      <point x="88" y="47"/>
      <point x="78" y="40"/>
      <point x="42" y="31" type="curve" smooth="yes"/>
      <point x="31" y="28"/>
      <point x="25" y="21"/>
      <point x="25" y="11" type="curve" smooth="yes"/>
      <point x="25" y="3"/>
      <point x="33" y="-3"/>
      <point x="41" y="-3" type="curve" smooth="yes"/>
      <point x="80" y="-3"/>
      <point x="126" y="2"/>
      <point x="161" y="2" type="curve" smooth="yes"/>
      <point x="196" y="2"/>
      <point x="248" y="-2"/>
      <point x="286" y="-2" type="curve" smooth="yes"/>
      <point x="295" y="-2"/>
      <point x="301" y="3"/>
      <point x="301" y="12" type="curve" smooth="yes"/>
      <point x="301" y="23"/>
      <point x="294" y="27"/>
      <point x="283" y="31" type="curve"/>
      <point x="245" y="43"/>
      <point x="235" y="52"/>
      <point x="235" y="69" type="curve" smooth="yes"/>
      <point x="235" y="168" type="line" smooth="yes"/>
      <point x="235" y="177"/>
      <point x="239" y="183"/>
      <point x="248" y="183" type="curve" smooth="yes"/>
      <point x="285" y="183" type="line" smooth="yes"/>
      <point x="290" y="183"/>
      <point x="294" y="179"/>
      <point x="294" y="176" type="curve" smooth="yes"/>
      <point x="294" y="81"/>
      <point x="381" y="-14"/>
      <point x="495" y="-14" type="curve" smooth="yes"/>
    </contour>
    <contour>
      <point x="481" y="37"/>
      <point x="445" y="82"/>
      <point x="445" y="222" type="curve" smooth="yes"/>
      <point x="445" y="327"/>
      <point x="454" y="386"/>
      <point x="503" y="386" type="curve" smooth="yes"/>
      <point x="537" y="386"/>
      <point x="572" y="334"/>
      <point x="572" y="202" type="curve" smooth="yes"/>
      <point x="572" y="83"/>
      <point x="559" y="37"/>
      <point x="512" y="37" type="curve" smooth="yes"/>
    </contour>
  </outline>
</glyph>
<glyph name="Yusbig-cy" format="1">
  <advance width="1058"/>
  <unicode hex="046A"/>
  <outline>
    <contour>
      <point x="219" y="-18"/>
      <point x="278" y="73"/>
      <point x="322" y="159" type="curve" smooth="yes"/>
      <point x="362" y="237"/>
      <point x="390" y="311"/>
      <point x="425" y="311" type="curve" smooth="yes"/>
      <point x="430" y="311"/>
      <point x="432" y="311"/>
      <point x="436" y="311" type="curve" smooth="yes"/>
      <point x="441" y="311"/>
      <point x="444" y="305"/>
      <point x="444" y="296" type="curve" smooth="yes"/>
      <point x="444" y="97" type="line" smooth="yes"/>
      <point x="444" y="56"/>
      <point x="435" y="44"/>
      <point x="384" y="34" type="curve" smooth="yes"/>
      <point x="368" y="31"/>
      <point x="359" y="24"/>
      <point x="359" y="12" type="curve" smooth="yes"/>
      <point x="359" y="3"/>
      <point x="375" y="-6"/>
      <point x="387" y="-6" type="curve" smooth="yes"/>
      <point x="456" y="-6"/>
      <point x="487" y="4"/>
      <point x="527" y="4" type="curve" smooth="yes"/>
      <point x="566" y="4"/>
      <point x="606" y="-4"/>
      <point x="670" y="-4" type="curve" smooth="yes"/>
      <point x="683" y="-4"/>
      <point x="698" y="3"/>
      <point x="698" y="13" type="curve" smooth="yes"/>
      <point x="698" y="26"/>
      <point x="685" y="30"/>
      <point x="673" y="34" type="curve"/>
      <point x="621" y="49"/>
      <point x="618" y="61"/>
      <point x="616" y="98" type="curve"/>
      <point x="613" y="298" type="line"/>
      <point x="613" y="307"/>
      <point x="616" y="313"/>
      <point x="621" y="313" type="curve" smooth="yes"/>
      <point x="625" y="313"/>
      <point x="627" y="311"/>
      <point x="632" y="311" type="curve" smooth="yes"/>
      <point x="658" y="311"/>
      <point x="680" y="251"/>
      <point x="713" y="182" type="curve" smooth="yes"/>
      <point x="757" y="90"/>
      <point x="820" y="-18"/>
      <point x="936" y="-18" type="curve" smooth="yes"/>
      <point x="991" y="-18"/>
      <point x="1043" y="0"/>
      <point x="1060" y="13" type="curve" smooth="yes"/>
      <point x="1065" y="17"/>
      <point x="1072" y="23"/>
      <point x="1072" y="30" type="curve" smooth="yes"/>
      <point x="1072" y="38"/>
      <point x="1064" y="47"/>
      <point x="1055" y="47" type="curve" smooth="yes"/>
      <point x="986" y="47"/>
      <point x="938" y="127"/>
      <point x="891" y="212" type="curve" smooth="yes"/>
      <point x="839" y="303"/>
      <point x="794" y="357"/>
      <point x="645" y="357" type="curve" smooth="yes"/>
      <point x="387" y="357" type="line" smooth="yes"/>
      <point x="304" y="357"/>
      <point x="250" y="343"/>
      <point x="207" y="268" type="curve" smooth="yes"/>
      <point x="123" y="123"/>
      <point x="79" y="54"/>
      <point x="3" y="47" type="curve" smooth="yes"/>
      <point x="-6" y="46"/>
      <point x="-14" y="38"/>
      <point x="-14" y="30" type="curve" smooth="yes"/>
      <point x="-14" y="23"/>
      <point x="-7" y="17"/>
      <point x="-2" y="13" type="curve" smooth="yes"/>
      <point x="15" y="0"/>
      <point x="67" y="-18"/>
      <point x="122" y="-18" type="curve" smooth="yes"/>
    </contour>
    <contour>
      <point x="622" y="334" type="line"/>
      <point x="859" y="547" type="line" smooth="yes"/>
      <point x="891" y="575"/>
      <point x="919" y="608"/>
      <point x="959" y="619" type="curve"/>
      <point x="971" y="623"/>
      <point x="985" y="626"/>
      <point x="985" y="639" type="curve" smooth="yes"/>
      <point x="985" y="652"/>
      <point x="970" y="656"/>
      <point x="955" y="656" type="curve" smooth="yes"/>
      <point x="913" y="656"/>
      <point x="882" y="649"/>
      <point x="843" y="649" type="curve" smooth="yes"/>
      <point x="231" y="650" type="line"/>
      <point x="192" y="650"/>
      <point x="121" y="654"/>
      <point x="79" y="654" type="curve" smooth="yes"/>
      <point x="69" y="654"/>
      <point x="60" y="649"/>
      <point x="60" y="639" type="curve" smooth="yes"/>
      <point x="60" y="626"/>
      <point x="70" y="622"/>
      <point x="82" y="618" type="curve"/>
      <point x="122" y="607"/>
      <point x="158" y="576"/>
      <point x="185" y="551" type="curve" smooth="yes"/>
      <point x="429" y="320" type="line"/>
    </contour>
    <contour>
      <point x="578" y="371"/>
      <point x="574" y="371"/>
      <point x="564" y="380" type="curve" smooth="yes"/>
      <point x="368" y="562" type="line" smooth="yes"/>
      <point x="339" y="588"/>
      <point x="362" y="596"/>
      <point x="376" y="596" type="curve" smooth="yes"/>
      <point x="766" y="597" type="line" smooth="yes"/>
      <point x="794" y="597"/>
      <point x="793" y="586"/>
      <point x="780" y="573" type="curve" smooth="yes"/>
      <point x="588" y="381" type="line" smooth="yes"/>
    </contour>
  </outline>
</glyph>
<glyph name="ertick-cy" format="1">
  <advance width="558"/>
  <unicode hex="048F"/>
  <outline>
    <contour>
      <point x="476" y="-81"/>
      <point x="477" y="-70"/>
      <point x="472" y="-60" type="curve"/>
      <point x="320" y="149" type="line" smooth="yes"/>
      <point x="306" y="168"/>
      <point x="285" y="174"/>
      <point x="273" y="166" type="curve" smooth="yes"/>
      <point x="260" y="157"/>
      <point x="260" y="144"/>
      <point x="268" y="132" type="curve" smooth="yes"/>
      <point x="418" y="-76" type="line"/>
      <point x="429" y="-91"/>
      <point x="457" y="-95"/>
      <point x="469" y="-86" type="curve" smooth="yes"/>
    </contour>
    <component base="p"/>
  </outline>
</glyph>
<glyph name="Ghestroke-cy" format="1">
  <advance width="533"/>
  <unicode hex="0492"/>
  <outline>
    <contour>
      <point x="363" y="281" type="line" smooth="yes"/>
      <point x="386" y="281"/>
      <point x="401" y="302"/>
      <point x="405" y="319" type="curve"/>
      <point x="405" y="321"/>
      <point x="406" y="322"/>
      <point x="406" y="324" type="curve" smooth="yes"/>
      <point x="406" y="334"/>
      <point x="396" y="343"/>
      <point x="383" y="343" type="curve" smooth="yes"/>
      <point x="44" y="343" type="line" smooth="yes"/>
      <point x="27" y="343"/>
      <point x="15" y="330"/>
      <point x="15" y="312" type="curve" smooth="yes"/>
      <point x="15" y="298"/>
      <point x="22" y="281"/>
      <point x="39" y="281" type="curve" smooth="yes"/>
    </contour>
    <component base="uni0413" xOffset="1"/>
  </outline>
</glyph>
<glyph name="kabashkir-cy" format="1">
  <advance width="639"/>
  <unicode hex="04A1"/>
  <outline>
    <contour>
      <point x="596" y="-14"/>
      <point x="637" y="-3"/>
      <point x="637" y="12" type="curve" smooth="yes"/>
      <point x="637" y="26"/>
      <point x="627" y="30"/>
      <point x="614" y="32" type="curve" smooth="yes"/>
      <point x="590" y="36"/>
      <point x="553" y="83"/>
      <point x="520" y="135" type="curve" smooth="yes"/>
      <point x="490" y="182"/>
      <point x="463" y="233"/>
      <point x="452" y="259" type="curve" smooth="yes"/>
      <point x="449" y="266"/>
      <point x="448" y="266"/>
      <point x="453" y="275" type="curve" smooth="yes"/>
      <point x="464" y="293"/>
      <point x="474" y="305"/>
      <point x="481" y="319" type="curve" smooth="yes"/>
      <point x="492" y="341"/>
      <point x="497" y="345"/>
      <point x="512" y="345" type="curve" smooth="yes"/>
      <point x="532" y="345"/>
      <point x="556" y="330"/>
      <point x="578" y="330" type="curve" smooth="yes"/>
      <point x="598" y="330"/>
      <point x="616" y="349"/>
      <point x="616" y="383" type="curve" smooth="yes"/>
      <point x="616" y="422"/>
      <point x="586" y="442"/>
      <point x="554" y="442" type="curve" smooth="yes"/>
      <point x="464" y="442"/>
      <point x="453" y="363"/>
      <point x="416" y="306" type="curve" smooth="yes"/>
      <point x="395" y="274"/>
      <point x="370" y="249"/>
      <point x="315" y="249" type="curve" smooth="yes"/>
      <point x="306" y="249"/>
      <point x="300" y="254"/>
      <point x="300" y="263" type="curve" smooth="yes"/>
      <point x="300" y="356" type="line" smooth="yes"/>
      <point x="300" y="373"/>
      <point x="310" y="382"/>
      <point x="348" y="394" type="curve"/>
      <point x="359" y="398"/>
      <point x="366" y="402"/>
      <point x="366" y="413" type="curve" smooth="yes"/>
      <point x="366" y="422"/>
      <point x="360" y="427"/>
      <point x="351" y="427" type="curve" smooth="yes"/>
      <point x="313" y="427"/>
      <point x="261" y="423"/>
      <point x="226" y="423" type="curve" smooth="yes"/>
      <point x="126" y="422" type="line"/>
      <point x="103" y="422"/>
      <point x="76" y="426"/>
      <point x="68" y="432" type="curve"/>
      <point x="60" y="439"/>
      <point x="47" y="444"/>
      <point x="43" y="444" type="curve" smooth="yes"/>
      <point x="37" y="444"/>
      <point x="28" y="436"/>
      <point x="28" y="423" type="curve" smooth="yes"/>
      <point x="28" y="404"/>
      <point x="24" y="361"/>
      <point x="16" y="331" type="curve" smooth="yes"/>
      <point x="13" y="320"/>
      <point x="10" y="309"/>
      <point x="10" y="301" type="curve" smooth="yes"/>
      <point x="10" y="289"/>
      <point x="15" y="273"/>
      <point x="28" y="273" type="curve" smooth="yes"/>
      <point x="42" y="273"/>
      <point x="47" y="295"/>
      <point x="51" y="304" type="curve" smooth="yes"/>
      <point x="64" y="334"/>
      <point x="87" y="373"/>
      <point x="112" y="373" type="curve" smooth="yes"/>
      <point x="129" y="373" type="line" smooth="yes"/>
      <point x="149" y="373"/>
      <point x="155" y="367"/>
      <point x="155" y="354" type="curve" smooth="yes"/>
      <point x="155" y="68" type="line" smooth="yes"/>
      <point x="155" y="47"/>
      <point x="143" y="40"/>
      <point x="107" y="31" type="curve" smooth="yes"/>
      <point x="96" y="28"/>
      <point x="90" y="21"/>
      <point x="90" y="11" type="curve" smooth="yes"/>
      <point x="90" y="3"/>
      <point x="98" y="-3"/>
      <point x="106" y="-3" type="curve" smooth="yes"/>
      <point x="145" y="-3"/>
      <point x="191" y="2"/>
      <point x="226" y="2" type="curve" smooth="yes"/>
      <point x="261" y="2"/>
      <point x="313" y="-2"/>
      <point x="351" y="-2" type="curve" smooth="yes"/>
      <point x="360" y="-2"/>
      <point x="366" y="3"/>
      <point x="366" y="12" type="curve" smooth="yes"/>
      <point x="366" y="23"/>
      <point x="359" y="27"/>
      <point x="348" y="31" type="curve"/>
      <point x="310" y="43"/>
      <point x="300" y="52"/>
      <point x="300" y="69" type="curve" smooth="yes"/>
      <point x="300" y="195" type="line" smooth="yes"/>
      <point x="300" y="201"/>
      <point x="304" y="204"/>
      <point x="311" y="204" type="curve" smooth="yes"/>
      <point x="330" y="204"/>
      <point x="331" y="198"/>
      <point x="338" y="185" type="curve" smooth="yes"/>
      <point x="399" y="61"/>
      <point x="414" y="-14"/>
      <point x="545" y="-14" type="curve" smooth="yes"/>
    </contour>
  </outline>
</glyph>
<glyph name="endescender-cy" format="1">
  <advance width="624"/>
  <unicode hex="04A3"/>
  <outline>
    <contour>
      <point x="569" y="-161"/>
      <point x="579" y="-150"/>
      <point x="581" y="-124" type="curve" smooth="yes"/>
      <point x="586" y="-62"/>
      <point x="603" y="20"/>
      <point x="603" y="40" type="curve"/>
      <point x="604" y="42"/>
      <point x="604" y="50"/>
      <point x="604" y="52" type="curve" smooth="yes"/>
      <point x="604" y="58"/>
      <point x="598" y="59"/>
      <point x="590" y="59" type="curve" smooth="yes"/>
      <point x="577" y="59"/>
      <point x="565" y="54"/>
      <point x="551" y="54" type="curve" smooth="yes"/>
      <point x="525" y="54"/>
      <point x="514" y="59"/>
      <point x="514" y="67" type="curve" smooth="yes"/>
      <point x="514" y="355" type="line"/>
      <point x="514" y="382"/>
      <point x="531" y="387"/>
      <point x="551" y="392" type="curve" smooth="yes"/>
      <point x="562" y="395"/>
      <point x="571" y="402"/>
      <point x="571" y="413" type="curve" smooth="yes"/>
      <point x="571" y="422"/>
      <point x="562" y="428"/>
      <point x="554" y="428" type="curve" smooth="yes"/>
      <point x="514" y="428"/>
      <point x="477" y="423"/>
      <point x="442" y="423" type="curve" smooth="yes"/>
      <point x="407" y="423"/>
      <point x="372" y="428"/>
      <point x="332" y="428" type="curve" smooth="yes"/>
      <point x="324" y="428"/>
      <point x="316" y="422"/>
      <point x="316" y="413" type="curve" smooth="yes"/>
      <point x="316" y="402"/>
      <point x="324" y="396"/>
      <point x="335" y="392" type="curve" smooth="yes"/>
      <point x="355" y="385"/>
      <point x="369" y="382"/>
      <point x="369" y="355" type="curve"/>
      <point x="369" y="271" type="line"/>
      <point x="369" y="244"/>
      <point x="355" y="239"/>
      <point x="335" y="239" type="curve" smooth="yes"/>
      <point x="259" y="239" type="line" smooth="yes"/>
      <point x="240" y="239"/>
      <point x="225" y="244"/>
      <point x="225" y="271" type="curve"/>
      <point x="225" y="355" type="line"/>
      <point x="225" y="382"/>
      <point x="240" y="385"/>
      <point x="259" y="392" type="curve" smooth="yes"/>
      <point x="270" y="396"/>
      <point x="278" y="403"/>
      <point x="278" y="413" type="curve" smooth="yes"/>
      <point x="278" y="421"/>
      <point x="270" y="428"/>
      <point x="262" y="428" type="curve" smooth="yes"/>
      <point x="222" y="428"/>
      <point x="190" y="423"/>
      <point x="155" y="423" type="curve" smooth="yes"/>
      <point x="120" y="423"/>
      <point x="80" y="428"/>
      <point x="40" y="428" type="curve" smooth="yes"/>
      <point x="32" y="428"/>
      <point x="20" y="422"/>
      <point x="20" y="413" type="curve" smooth="yes"/>
      <point x="20" y="402"/>
      <point x="32" y="396"/>
      <point x="43" y="392" type="curve" smooth="yes"/>
      <point x="63" y="386"/>
      <point x="80" y="381"/>
      <point x="80" y="354" type="curve"/>
      <point x="80" y="71" type="line" smooth="yes"/>
      <point x="80" y="44"/>
      <point x="63" y="39"/>
      <point x="43" y="33" type="curve" smooth="yes"/>
      <point x="32" y="29"/>
      <point x="20" y="23"/>
      <point x="20" y="12" type="curve" smooth="yes"/>
      <point x="20" y="3"/>
      <point x="32" y="-3"/>
      <point x="40" y="-3" type="curve" smooth="yes"/>
      <point x="80" y="-3"/>
      <point x="120" y="2"/>
      <point x="155" y="2" type="curve" smooth="yes"/>
      <point x="190" y="2"/>
      <point x="222" y="-3"/>
      <point x="262" y="-3" type="curve" smooth="yes"/>
      <point x="270" y="-3"/>
      <point x="278" y="4"/>
      <point x="278" y="12" type="curve" smooth="yes"/>
      <point x="278" y="22"/>
      <point x="270" y="29"/>
      <point x="259" y="33" type="curve" smooth="yes"/>
      <point x="240" y="40"/>
      <point x="225" y="43"/>
      <point x="225" y="70" type="curve" smooth="yes"/>
      <point x="225" y="158" type="line"/>
      <point x="225" y="185"/>
      <point x="240" y="190"/>
      <point x="259" y="190" type="curve" smooth="yes"/>
      <point x="335" y="190" type="line" smooth="yes"/>
      <point x="355" y="190"/>
      <point x="369" y="185"/>
      <point x="369" y="158" type="curve"/>
      <point x="369" y="70" type="line" smooth="yes"/>
      <point x="369" y="43"/>
      <point x="355" y="38"/>
      <point x="335" y="33" type="curve" smooth="yes"/>
      <point x="324" y="30"/>
      <point x="316" y="23"/>
      <point x="316" y="12" type="curve" smooth="yes"/>
      <point x="316" y="3"/>
      <point x="324" y="-3"/>
      <point x="332" y="-3" type="curve" smooth="yes"/>
      <point x="372" y="-3"/>
      <point x="416" y="2"/>
      <point x="451" y="2" type="curve" smooth="yes"/>
      <point x="494" y="2"/>
      <point x="528" y="-19"/>
      <point x="528" y="-80" type="curve" smooth="yes"/>
      <point x="528" y="-93"/>
      <point x="531" y="-109"/>
      <point x="531" y="-127" type="curve" smooth="yes"/>
      <point x="531" y="-146"/>
      <point x="541" y="-161"/>
      <point x="554" y="-161" type="curve" smooth="yes"/>
    </contour>
  </outline>
</glyph>
<glyph name="uni04B0" format="1">
  <advance width="671"/>
  <unicode hex="04B0"/>
  <note>
    uni04B0
  </note>
  <outline>
    <contour>
      <point x="504" y="256" type="line" smooth="yes"/>
      <point x="527" y="256"/>
      <point x="542" y="277"/>
      <point x="546" y="294" type="curve"/>
      <point x="546" y="296"/>
      <point x="547" y="297"/>
      <point x="547" y="299" type="curve" smooth="yes"/>
      <point x="547" y="309"/>
      <point x="537" y="318"/>
      <point x="524" y="318" type="curve" smooth="yes"/>
      <point x="185" y="318" type="line" smooth="yes"/>
      <point x="168" y="318"/>
      <point x="156" y="305"/>
      <point x="156" y="287" type="curve" smooth="yes"/>
      <point x="156" y="273"/>
      <point x="163" y="256"/>
      <point x="180" y="256" type="curve" smooth="yes"/>
    </contour>
    <component base="Y"/>
  </outline>
</glyph>
<glyph name="cheabkhasian-cy" format="1">
  <advance width="509"/>
  <unicode hex="04BD"/>
  <outline>
    <contour>
      <point x="184" y="309" type="line"/>
      <point x="92" y="309"/>
      <point x="70" y="338"/>
      <point x="70" y="365" type="curve" smooth="yes"/>
      <point x="70" y="376"/>
      <point x="78" y="389"/>
      <point x="88" y="404" type="curve" smooth="yes"/>
      <point x="96" y="415"/>
      <point x="99" y="428"/>
      <point x="99" y="438" type="curve" smooth="yes"/>
      <point x="99" y="466"/>
      <point x="75" y="481"/>
      <point x="50" y="481" type="curve" smooth="yes"/>
      <point x="26" y="481"/>
      <point x="5" y="464"/>
      <point x="5" y="430" type="curve" smooth="yes"/>
      <point x="5" y="387"/>
      <point x="32" y="338"/>
      <point x="71" y="303" type="curve" smooth="yes"/>
      <point x="115" y="263"/>
      <point x="174" y="249"/>
      <point x="206" y="249" type="curve"/>
    </contour>
    <component base="e" xOffset="86"/>
    <contour>
      <point x="322" y="440" type="move" name="top"/>
    </contour>
  </outline>
</glyph>
<glyph name="uni04E9" format="1">
  <advance width="505"/>
  <unicode hex="04E9"/>
  <note>
    uni04E9
  </note>
  <outline>
    <contour>
      <point x="393" y="181" type="line"/>
      <point x="393" y="239" type="line"/>
      <point x="100" y="239" type="line"/>
      <point x="101" y="181" type="line"/>
    </contour>
    <component base="o"/>
  </outline>
</glyph>
<glyph name="Hastroke-cy" format="1">
  <advance width="780"/>
  <unicode hex="04FE"/>
  <outline>
    <contour>
      <point x="666" y="315" type="line" smooth="yes"/>
      <point x="689" y="315"/>
      <point x="704" y="336"/>
      <point x="708" y="353" type="curve"/>
      <point x="708" y="355"/>
      <point x="709" y="356"/>
      <point x="709" y="358" type="curve" smooth="yes"/>
      <point x="709" y="368"/>
      <point x="699" y="377"/>
      <point x="686" y="377" type="curve" smooth="yes"/>
      <point x="117" y="377" type="line" smooth="yes"/>
      <point x="100" y="377"/>
      <point x="88" y="364"/>
      <point x="88" y="346" type="curve" smooth="yes"/>
      <point x="88" y="332"/>
      <point x="95" y="315"/>
      <point x="112" y="315" type="curve" smooth="yes"/>
    </contour>
    <component base="X" xOffset="10"/>
  </outline>
</glyph>
<glyph name="uni1FC1" format="1">
  <advance width="367"/>
  <unicode hex="1FC1"/>
  <note>
    uni1FC1
  </note>
  <outline>
    <component base="dieresis" xOffset="14" yOffset="73" xScale="0.924" yScale="0.865"/>
    <component base="uni1FC0" xOffset="5" yOffset="165"/>
    <contour>
      <point x="175" y="440" type="move" name="_top"/>
    </contour>
  </outline>
</glyph>
<glyph name="uni1FCD" format="1">
  <advance width="367"/>
  <unicode hex="1FCD"/>
  <note>
    uni1FCD
  </note>
  <outline>
    <contour>
      <point x="329" y="469"/>
      <point x="332" y="486"/>
      <point x="333" y="506" type="curve" smooth="yes"/>
      <point x="335" y="546"/>
      <point x="313" y="659"/>
      <point x="307" y="690" type="curve" smooth="yes"/>
      <point x="304" y="706"/>
      <point x="281" y="714"/>
      <point x="267" y="714" type="curve" smooth="yes"/>
      <point x="240" y="714"/>
      <point x="214" y="686"/>
      <point x="214" y="662" type="curve" smooth="yes"/>
      <point x="214" y="645"/>
      <point x="267" y="551"/>
      <point x="295" y="495" type="curve" smooth="yes"/>
      <point x="301" y="483"/>
      <point x="310" y="475"/>
      <point x="316" y="473" type="curve" smooth="yes"/>
    </contour>
    <component base="uni1FBF" xOffset="-8"/>
    <contour>
      <point x="190" y="440" type="move" name="_top"/>
    </contour>
  </outline>
</glyph>
<glyph name="uni1FCF" format="1">
  <advance width="367"/>
  <unicode hex="1FCF"/>
  <note>
    uni1FCF
  </note>
  <outline>
    <component base="uni1FC0" yOffset="170"/>
    <component base="uni0313.grkstacksc" xOffset="179" yOffset="15"/>
    <contour>
      <point x="171" y="440" type="move" name="_top"/>
    </contour>
  </outline>
</glyph>
<glyph name="uni1FDE" format="1">
  <advance width="367"/>
  <unicode hex="1FDE"/>
  <note>
    uni1FDE
  </note>
  <outline>
    <contour>
      <point x="241" y="475"/>
      <point x="249" y="483"/>
      <point x="256" y="495" type="curve" smooth="yes"/>
      <point x="287" y="549"/>
      <point x="337" y="645"/>
      <point x="337" y="662" type="curve" smooth="yes"/>
      <point x="337" y="686"/>
      <point x="311" y="714"/>
      <point x="284" y="714" type="curve" smooth="yes"/>
      <point x="270" y="714"/>
      <point x="248" y="706"/>
      <point x="244" y="690" type="curve" smooth="yes"/>
      <point x="236" y="660"/>
      <point x="220" y="546"/>
      <point x="218" y="506" type="curve" smooth="yes"/>
      <point x="217" y="486"/>
      <point x="222" y="469"/>
      <point x="235" y="473" type="curve" smooth="yes"/>
    </contour>
    <component base="uni1FBF" xOffset="234" xScale="-1"/>
    <contour>
      <point x="174" y="440" type="move" name="_top"/>
    </contour>
  </outline>
</glyph>
<glyph name="uni1FED" format="1">
  <advance width="367"/>
  <unicode hex="1FED"/>
  <note>
    uni1FED
  </note>
  <outline>
    <component base="uni0308.grkstacksc" xOffset="184" yOffset="23"/>
    <component base="gravecomb.grksc" xOffset="137" yOffset="154"/>
    <contour>
      <point x="182" y="441" type="move" name="_top"/>
    </contour>
  </outline>
</glyph>
<glyph name="guilsinglleft" format="1">
  <advance width="409"/>
  <unicode hex="2039"/>
  <note>
    guilsinglleft
  </note>
  <outline>
    <contour>
      <point x="346" y="15"/>
      <point x="349" y="20"/>
      <point x="349" y="27" type="curve" smooth="yes"/>
      <point x="349" y="32"/>
      <point x="346" y="38"/>
      <point x="343" y="43" type="curve"/>
      <point x="273" y="146"/>
      <point x="250" y="169"/>
      <point x="204" y="211" type="curve"/>
      <point x="194" y="219"/>
      <point x="194" y="219"/>
      <point x="204" y="227" type="curve" smooth="yes"/>
      <point x="250" y="269"/>
      <point x="273" y="292"/>
      <point x="343" y="395" type="curve"/>
      <point x="346" y="401"/>
      <point x="349" y="406"/>
      <point x="349" y="412" type="curve" smooth="yes"/>
      <point x="349" y="418"/>
      <point x="346" y="423"/>
      <point x="342" y="423" type="curve" smooth="yes"/>
      <point x="327" y="423"/>
      <point x="312" y="407"/>
      <point x="306" y="402" type="curve" smooth="yes"/>
      <point x="223" y="326"/>
      <point x="200" y="310"/>
      <point x="77" y="236" type="curve" smooth="yes"/>
      <point x="70" y="233"/>
      <point x="65" y="227"/>
      <point x="65" y="219" type="curve" smooth="yes"/>
      <point x="65" y="204"/>
      <point x="73" y="190"/>
      <point x="95" y="179" type="curve" smooth="yes"/>
      <point x="195" y="130"/>
      <point x="223" y="112"/>
      <point x="306" y="36" type="curve" smooth="yes"/>
      <point x="312" y="31"/>
      <point x="327" y="15"/>
      <point x="342" y="15" type="curve" smooth="yes"/>
    </contour>
  </outline>
</glyph>
<glyph name="lira" format="1">
  <advance width="585"/>
  <unicode hex="20A4"/>
  <outline>
    <contour>
      <point x="420" y="356" type="line" smooth="yes"/>
      <point x="441" y="357"/>
      <point x="463" y="376"/>
      <point x="463" y="386" type="curve" smooth="yes"/>
      <point x="463" y="393"/>
      <point x="455" y="404"/>
      <point x="445" y="403" type="curve" smooth="yes"/>
      <point x="68" y="378" type="line" smooth="yes"/>
      <point x="50" y="377"/>
      <point x="35" y="360"/>
      <point x="35" y="348" type="curve" smooth="yes"/>
      <point x="35" y="339"/>
      <point x="45" y="330"/>
      <point x="55" y="331" type="curve" smooth="yes"/>
    </contour>
    <contour>
      <point x="420" y="263" type="line" smooth="yes"/>
      <point x="441" y="264"/>
      <point x="463" y="283"/>
      <point x="463" y="293" type="curve" smooth="yes"/>
      <point x="463" y="300"/>
      <point x="455" y="311"/>
      <point x="445" y="310" type="curve" smooth="yes"/>
      <point x="68" y="285" type="line" smooth="yes"/>
      <point x="50" y="284"/>
      <point x="35" y="267"/>
      <point x="35" y="255" type="curve" smooth="yes"/>
      <point x="35" y="246"/>
      <point x="45" y="237"/>
      <point x="55" y="238" type="curve" smooth="yes"/>
    </contour>
    <component base="L.script"/>
  </outline>
</glyph>
<glyph name="won" format="1">
  <advance width="1043"/>
  <unicode hex="20A9"/>
  <outline>
    <contour>
      <point x="940" y="309" type="line"/>
      <point x="961" y="310"/>
      <point x="983" y="333"/>
      <point x="984" y="343" type="curve"/>
      <point x="984" y="350"/>
      <point x="976" y="361"/>
      <point x="966" y="361" type="curve"/>
      <point x="89" y="359" type="line"/>
      <point x="71" y="358"/>
      <point x="56" y="336"/>
      <point x="55" y="324" type="curve"/>
      <point x="55" y="315"/>
      <point x="65" y="306"/>
      <point x="75" y="306" type="curve" smooth="yes"/>
    </contour>
    <component base="W"/>
  </outline>
</glyph>
<glyph name="kip" format="1">
  <advance width="781"/>
  <unicode hex="20AD"/>
  <outline>
    <contour>
      <point x="720" y="329" type="line"/>
      <point x="741" y="330"/>
      <point x="763" y="353"/>
      <point x="764" y="363" type="curve"/>
      <point x="764" y="370"/>
      <point x="756" y="381"/>
      <point x="746" y="381" type="curve"/>
      <point x="59" y="379" type="line"/>
      <point x="41" y="378"/>
      <point x="26" y="356"/>
      <point x="25" y="344" type="curve"/>
      <point x="25" y="335"/>
      <point x="35" y="326"/>
      <point x="45" y="326" type="curve" smooth="yes"/>
    </contour>
    <component base="K"/>
  </outline>
</glyph>
<glyph name="uni20B2" format="1">
  <advance width="717"/>
  <unicode hex="20B2"/>
  <note>
    uni20B2
  </note>
  <outline>
    <contour>
      <point x="391" y="-106"/>
      <point x="418" y="-101"/>
      <point x="418" y="-74" type="curve" smooth="yes"/>
      <point x="418" y="702" type="line" smooth="yes"/>
      <point x="418" y="711"/>
      <point x="409" y="719"/>
      <point x="400" y="719" type="curve" smooth="yes"/>
      <point x="392" y="719"/>
      <point x="364" y="707"/>
      <point x="364" y="679" type="curve" smooth="yes"/>
      <point x="364" y="-87" type="line" smooth="yes"/>
      <point x="364" y="-97"/>
      <point x="372" y="-106"/>
      <point x="379" y="-106" type="curve" smooth="yes"/>
    </contour>
    <component base="G"/>
  </outline>
</glyph>
<glyph name="cedi" format="1">
  <advance width="709"/>
  <unicode hex="20B5"/>
  <outline>
    <contour>
      <point x="344" y="-92"/>
      <point x="357" y="-88"/>
      <point x="358" y="-80" type="curve"/>
      <point x="443" y="694" type="line"/>
      <point x="445" y="710"/>
      <point x="440" y="722"/>
      <point x="427" y="722" type="curve" smooth="yes"/>
      <point x="407" y="722"/>
      <point x="391" y="715"/>
      <point x="390" y="703" type="curve"/>
      <point x="306" y="-64" type="line"/>
      <point x="305" y="-78"/>
      <point x="311" y="-92"/>
      <point x="329" y="-92" type="curve" smooth="yes"/>
    </contour>
    <component base="C"/>
  </outline>
</glyph>
<glyph name="partialdiff" format="1">
  <advance width="520"/>
  <unicode hex="2202"/>
  <outline>
    <contour>
      <point x="407" y="-14"/>
      <point x="490" y="133"/>
      <point x="490" y="250" type="curve" smooth="yes"/>
      <point x="490" y="492"/>
      <point x="342" y="704"/>
      <point x="114" y="704" type="curve" smooth="yes"/>
      <point x="89" y="704"/>
      <point x="67" y="700"/>
      <point x="67" y="687" type="curve" smooth="yes"/>
      <point x="67" y="672"/>
      <point x="88" y="668"/>
      <point x="103" y="665" type="curve" smooth="yes"/>
      <point x="209" y="644"/>
      <point x="263" y="559"/>
      <point x="292" y="439" type="curve" smooth="yes"/>
      <point x="293" y="434"/>
      <point x="291" y="434"/>
      <point x="288" y="435" type="curve" smooth="yes"/>
      <point x="284" y="436"/>
      <point x="277" y="437"/>
      <point x="271" y="437" type="curve" smooth="yes"/>
      <point x="124" y="437"/>
      <point x="20" y="328"/>
      <point x="20" y="197" type="curve" smooth="yes"/>
      <point x="20" y="74"/>
      <point x="127" y="-14"/>
      <point x="249" y="-14" type="curve" smooth="yes"/>
    </contour>
    <contour>
      <point x="216" y="36"/>
      <point x="173" y="129"/>
      <point x="173" y="222" type="curve" smooth="yes"/>
      <point x="173" y="325"/>
      <point x="208" y="386"/>
      <point x="252" y="386" type="curve" smooth="yes"/>
      <point x="278" y="386"/>
      <point x="296" y="376"/>
      <point x="316" y="350" type="curve"/>
      <point x="325" y="321"/>
      <point x="336" y="266"/>
      <point x="336" y="228" type="curve" smooth="yes"/>
      <point x="336" y="79"/>
      <point x="313" y="36"/>
      <point x="264" y="36" type="curve" smooth="yes"/>
    </contour>
  </outline>
</glyph>
<glyph name="uni2C65" format="1">
  <advance width="447"/>
  <unicode hex="2C65"/>
  <note>
    uni2C65
  </note>
  <outline>
    <contour>
      <point x="36" y="-77"/>
      <point x="60" y="-73"/>
      <point x="74" y="-50" type="curve" smooth="yes"/>
      <point x="376" y="442" type="line"/>
      <point x="376" y="443"/>
      <point x="383" y="457"/>
      <point x="383" y="458" type="curve" smooth="yes"/>
      <point x="383" y="468"/>
      <point x="373" y="477"/>
      <point x="362" y="477" type="curve" smooth="yes"/>
      <point x="333" y="477"/>
      <point x="309" y="476"/>
      <point x="294" y="452" type="curve" smooth="yes"/>
      <point x="-6" y="-37" type="line"/>
      <point x="-12" y="-46"/>
      <point x="-16" y="-55"/>
      <point x="-16" y="-55" type="curve"/>
      <point x="-16" y="-66"/>
      <point x="-10" y="-77"/>
      <point x="7" y="-77" type="curve" smooth="yes"/>
    </contour>
    <component base="a"/>
  </outline>
</glyph>
<glyph name="uniA72B" format="1">
  <advance width="449"/>
  <unicode hex="A72B"/>
  <note>
    uniA72B
  </note>
  <outline>
    <contour>
      <point x="281" y="-190"/>
      <point x="367" y="-109"/>
      <point x="367" y="-86" type="curve" smooth="yes"/>
      <point x="367" y="-73"/>
      <point x="362" y="-62"/>
      <point x="354" y="-62" type="curve" smooth="yes"/>
      <point x="344" y="-62"/>
      <point x="335" y="-68"/>
      <point x="331" y="-73" type="curve" smooth="yes"/>
      <point x="307" y="-99"/>
      <point x="277" y="-118"/>
      <point x="241" y="-118" type="curve" smooth="yes"/>
      <point x="197" y="-118"/>
      <point x="173" y="-96"/>
      <point x="173" y="-59" type="curve" smooth="yes"/>
      <point x="173" y="-13"/>
      <point x="194" y="16"/>
      <point x="214" y="32" type="curve" smooth="yes"/>
      <point x="246" y="57"/>
      <point x="257" y="66"/>
      <point x="281" y="81" type="curve" smooth="yes"/>
      <point x="298" y="91"/>
      <point x="326" y="113"/>
      <point x="326" y="124" type="curve" smooth="yes"/>
      <point x="326" y="137"/>
      <point x="308" y="149"/>
      <point x="300" y="149" type="curve" smooth="yes"/>
      <point x="297" y="149"/>
      <point x="269" y="124"/>
      <point x="236" y="124" type="curve" smooth="yes"/>
      <point x="167" y="124"/>
      <point x="160" y="180"/>
      <point x="160" y="212" type="curve" smooth="yes"/>
      <point x="160" y="298"/>
      <point x="202" y="368"/>
      <point x="273" y="368" type="curve" smooth="yes"/>
      <point x="310" y="368"/>
      <point x="335" y="345"/>
      <point x="352" y="327" type="curve" smooth="yes"/>
      <point x="363" y="312"/>
      <point x="372" y="301"/>
      <point x="383" y="301" type="curve" smooth="yes"/>
      <point x="407" y="301"/>
      <point x="429" y="322"/>
      <point x="429" y="349" type="curve" smooth="yes"/>
      <point x="429" y="396"/>
      <point x="382" y="423"/>
      <point x="304" y="423" type="curve"/>
      <point x="276" y="423"/>
      <point x="243" y="414"/>
      <point x="194" y="391" type="curve" smooth="yes"/>
      <point x="121" y="357"/>
      <point x="21" y="297"/>
      <point x="21" y="182" type="curve" smooth="yes"/>
      <point x="21" y="137"/>
      <point x="49" y="76"/>
      <point x="144" y="64" type="curve" smooth="yes"/>
      <point x="150" y="63"/>
      <point x="149" y="58"/>
      <point x="144" y="56" type="curve"/>
      <point x="60" y="14"/>
      <point x="48" y="-52"/>
      <point x="48" y="-85" type="curve" smooth="yes"/>
      <point x="48" y="-148"/>
      <point x="100" y="-190"/>
      <point x="182" y="-190" type="curve" smooth="yes"/>
    </contour>
  </outline>
</glyph>
<glyph name="L.sc" format="1">
  <advance width="500"/>
  <note>
    L.sc
  </note>
  <outline>
    <contour>
      <point x="97" y="-3"/>
      <point x="137" y="0"/>
      <point x="162" y="0" type="curve" smooth="yes"/>
      <point x="262" y="0"/>
      <point x="408" y="-3"/>
      <point x="420" y="-3" type="curve" smooth="yes"/>
      <point x="430" y="-3"/>
      <point x="437" y="6"/>
      <point x="438" y="13" type="curve" smooth="yes"/>
      <point x="440" y="23"/>
      <point x="466" y="120"/>
      <point x="466" y="131" type="curve" smooth="yes"/>
      <point x="466" y="140"/>
      <point x="463" y="150"/>
      <point x="453" y="150" type="curve" smooth="yes"/>
      <point x="445" y="150"/>
      <point x="440" y="145"/>
      <point x="435" y="134" type="curve" smooth="yes"/>
      <point x="401" y="60"/>
      <point x="382" y="50"/>
      <point x="333" y="50" type="curve" smooth="yes"/>
      <point x="281" y="50" type="line" smooth="yes"/>
      <point x="270" y="50"/>
      <point x="257" y="56"/>
      <point x="257" y="80" type="curve" smooth="yes"/>
      <point x="257" y="367" type="line" smooth="yes"/>
      <point x="257" y="396"/>
      <point x="262" y="414"/>
      <point x="287" y="421" type="curve" smooth="yes"/>
      <point x="295" y="423"/>
      <point x="303" y="428"/>
      <point x="303" y="439" type="curve" smooth="yes"/>
      <point x="303" y="447"/>
      <point x="299" y="452"/>
      <point x="289" y="452" type="curve" smooth="yes"/>
      <point x="263" y="452"/>
      <point x="193" y="449"/>
      <point x="168" y="449" type="curve" smooth="yes"/>
      <point x="140" y="449"/>
      <point x="75" y="453"/>
      <point x="47" y="453" type="curve" smooth="yes"/>
      <point x="40" y="453"/>
      <point x="30" y="450"/>
      <point x="30" y="440" type="curve" smooth="yes"/>
      <point x="30" y="428"/>
      <point x="37" y="423"/>
      <point x="46" y="420" type="curve" smooth="yes"/>
      <point x="86" y="407"/>
      <point x="90" y="398"/>
      <point x="90" y="371" type="curve" smooth="yes"/>
      <point x="90" y="65" type="line" smooth="yes"/>
      <point x="90" y="38"/>
      <point x="83" y="37"/>
      <point x="54" y="27" type="curve" smooth="yes"/>
      <point x="40" y="22"/>
      <point x="40" y="13"/>
      <point x="40" y="10" type="curve" smooth="yes"/>
      <point x="40" y="4"/>
      <point x="44" y="-3"/>
      <point x="50" y="-3" type="curve" smooth="yes"/>
    </contour>
    <contour>
      <point x="173" y="503" type="move" name="top"/>
    </contour>
    <contour>
      <point x="246" y="-30" type="move" name="bottom"/>
    </contour>
  </outline>
</glyph>
<glyph name="Ohorn.sc" format="1">
  <advance width="615"/>
  <note>
    Ohorn.sc
  </note>
  <outline>
    <contour>
      <point x="426" y="-14"/>
      <point x="583" y="127"/>
      <point x="583" y="280" type="curve" smooth="yes"/>
      <point x="583" y="305"/>
      <point x="578" y="328"/>
      <point x="570" y="349" type="curve" smooth="yes"/>
      <point x="568" y="354"/>
      <point x="574" y="358"/>
      <point x="584" y="362" type="curve" smooth="yes"/>
      <point x="634" y="382"/>
      <point x="690" y="431"/>
      <point x="690" y="499" type="curve" smooth="yes"/>
      <point x="690" y="524"/>
      <point x="680" y="549"/>
      <point x="661" y="549" type="curve" smooth="yes"/>
      <point x="631" y="549"/>
      <point x="557" y="512"/>
      <point x="557" y="477" type="curve" smooth="yes"/>
      <point x="557" y="467"/>
      <point x="565" y="463"/>
      <point x="573" y="459" type="curve" smooth="yes"/>
      <point x="581" y="455"/>
      <point x="587" y="451"/>
      <point x="587" y="442" type="curve" smooth="yes"/>
      <point x="587" y="418"/>
      <point x="565" y="408"/>
      <point x="550" y="408" type="curve" smooth="yes"/>
      <point x="532" y="408"/>
      <point x="512" y="423"/>
      <point x="482" y="437" type="curve" smooth="yes"/>
      <point x="458" y="448"/>
      <point x="427" y="458"/>
      <point x="386" y="458" type="curve" smooth="yes"/>
      <point x="197" y="458"/>
      <point x="42" y="318"/>
      <point x="42" y="164" type="curve" smooth="yes"/>
      <point x="42" y="58"/>
      <point x="129" y="-14"/>
      <point x="238" y="-14" type="curve" smooth="yes"/>
    </contour>
    <contour>
      <point x="209" y="20"/>
      <point x="191" y="65"/>
      <point x="193" y="123" type="curve" smooth="yes"/>
      <point x="197" y="235"/>
      <point x="287" y="425"/>
      <point x="374" y="425" type="curve" smooth="yes"/>
      <point x="414" y="425"/>
      <point x="437" y="380"/>
      <point x="435" y="321" type="curve" smooth="yes"/>
      <point x="431" y="210"/>
      <point x="336" y="20"/>
      <point x="248" y="20" type="curve" smooth="yes"/>
    </contour>
  </outline>
</glyph>
<glyph name="Oslash.sc" format="1">
  <advance width="632"/>
  <note>
    Oslash.sc
  </note>
  <outline>
    <contour>
      <point x="71" y="20" type="line" smooth="yes"/>
      <point x="64" y="13"/>
      <point x="61" y="7"/>
      <point x="62" y="-1" type="curve" smooth="yes"/>
      <point x="62" y="-13"/>
      <point x="80" y="-18"/>
      <point x="96" y="-18" type="curve" smooth="yes"/>
      <point x="117" y="-17"/>
      <point x="131" y="-10"/>
      <point x="150" y="8" type="curve" smooth="yes"/>
      <point x="562" y="413" type="line"/>
      <point x="565" y="417"/>
      <point x="569" y="422"/>
      <point x="568" y="433" type="curve" smooth="yes"/>
      <point x="568" y="444"/>
      <point x="554" y="455"/>
      <point x="544" y="455" type="curve" smooth="yes"/>
      <point x="516" y="455"/>
      <point x="503" y="444"/>
      <point x="482" y="428" type="curve"/>
    </contour>
    <component base="O.sc"/>
  </outline>
</glyph>
<glyph name="S.pc" format="1">
  <advance width="412"/>
  <note>
    S.pc
  </note>
  <outline>
    <contour>
      <point x="320" y="-9"/>
      <point x="382" y="61"/>
      <point x="382" y="129" type="curve" smooth="yes"/>
      <point x="382" y="180"/>
      <point x="356" y="221"/>
      <point x="304" y="250" type="curve" smooth="yes"/>
      <point x="228" y="293" type="line" smooth="yes"/>
      <point x="192" y="313"/>
      <point x="180" y="337"/>
      <point x="180" y="354" type="curve" smooth="yes"/>
      <point x="180" y="372"/>
      <point x="195" y="394"/>
      <point x="233" y="394" type="curve" smooth="yes"/>
      <point x="274" y="394"/>
      <point x="313" y="368"/>
      <point x="323" y="311" type="curve" smooth="yes"/>
      <point x="325" y="300"/>
      <point x="338" y="292"/>
      <point x="346" y="292" type="curve" smooth="yes"/>
      <point x="355" y="292"/>
      <point x="365" y="301"/>
      <point x="365" y="309" type="curve" smooth="yes"/>
      <point x="365" y="354"/>
      <point x="367" y="374"/>
      <point x="362" y="393" type="curve"/>
      <point x="355" y="414"/>
      <point x="352" y="414"/>
      <point x="336" y="419" type="curve" smooth="yes"/>
      <point x="312" y="428"/>
      <point x="271" y="436"/>
      <point x="233" y="436" type="curve" smooth="yes"/>
      <point x="145" y="436"/>
      <point x="51" y="392"/>
      <point x="51" y="303" type="curve" smooth="yes"/>
      <point x="51" y="238"/>
      <point x="89" y="207"/>
      <point x="140" y="179" type="curve" smooth="yes"/>
      <point x="203" y="144" type="line" smooth="yes"/>
      <point x="245" y="121"/>
      <point x="256" y="109"/>
      <point x="256" y="85" type="curve" smooth="yes"/>
      <point x="256" y="67"/>
      <point x="244" y="39"/>
      <point x="205" y="39" type="curve" smooth="yes"/>
      <point x="152" y="39"/>
      <point x="115" y="80"/>
      <point x="85" y="150" type="curve" smooth="yes"/>
      <point x="81" y="159"/>
      <point x="73" y="172"/>
      <point x="56" y="172" type="curve" smooth="yes"/>
      <point x="49" y="172"/>
      <point x="36" y="161"/>
      <point x="36" y="148" type="curve" smooth="yes"/>
      <point x="36" y="91"/>
      <point x="38" y="65"/>
      <point x="52" y="34" type="curve"/>
      <point x="55" y="27"/>
      <point x="64" y="20"/>
      <point x="73" y="15" type="curve" smooth="yes"/>
      <point x="111" y="-4"/>
      <point x="154" y="-9"/>
      <point x="196" y="-9" type="curve" smooth="yes"/>
    </contour>
  </outline>
</glyph>
<glyph name="Udieresis.deu" format="1">
  <advance width="746"/>
  <note>
    Udieresis.deu
  </note>
  <outline>
    <component base="U"/>
    <component base="uni0307.cap" xOffset="320" yOffset="45" xScale="0.784" yScale="0.784"/>
    <component base="uni0307.cap" xOffset="479" yOffset="47" xScale="0.784" yScale="0.784"/>
    <contour>
      <point x="387" y="-30" type="move" name="bottom.cap"/>
    </contour>
  </outline>
</glyph>
<glyph name="Uhorn.sc" format="1">
  <advance width="569"/>
  <note>
    Uhorn.sc
  </note>
  <outline>
    <contour>
      <point x="353" y="-14"/>
      <point x="431" y="73"/>
      <point x="473" y="205" type="curve" smooth="yes"/>
      <point x="522" y="356" type="line" smooth="yes"/>
      <point x="533" y="389"/>
      <point x="544" y="404"/>
      <point x="573" y="417" type="curve" smooth="yes"/>
      <point x="623" y="437"/>
      <point x="683" y="474"/>
      <point x="683" y="542" type="curve" smooth="yes"/>
      <point x="683" y="567"/>
      <point x="673" y="592"/>
      <point x="654" y="592" type="curve" smooth="yes"/>
      <point x="624" y="592"/>
      <point x="550" y="555"/>
      <point x="550" y="520" type="curve" smooth="yes"/>
      <point x="550" y="510"/>
      <point x="558" y="506"/>
      <point x="566" y="502" type="curve" smooth="yes"/>
      <point x="574" y="498"/>
      <point x="580" y="494"/>
      <point x="580" y="480" type="curve" smooth="yes"/>
      <point x="580" y="461"/>
      <point x="566" y="450"/>
      <point x="538" y="450" type="curve" smooth="yes"/>
      <point x="523" y="450"/>
      <point x="511" y="449"/>
      <point x="499" y="449" type="curve" smooth="yes"/>
      <point x="484" y="450"/>
      <point x="468" y="453"/>
      <point x="443" y="453" type="curve" smooth="yes"/>
      <point x="427" y="453"/>
      <point x="418" y="448"/>
      <point x="416" y="440" type="curve" smooth="yes"/>
      <point x="413" y="427"/>
      <point x="435" y="425"/>
      <point x="456" y="412" type="curve" smooth="yes"/>
      <point x="474" y="401"/>
      <point x="469" y="362"/>
      <point x="453" y="309" type="curve" smooth="yes"/>
      <point x="415" y="184" type="line" smooth="yes"/>
      <point x="393" y="113"/>
      <point x="344" y="61"/>
      <point x="275" y="61" type="curve" smooth="yes"/>
      <point x="220" y="61"/>
      <point x="180" y="109"/>
      <point x="201" y="177" type="curve" smooth="yes"/>
      <point x="257" y="355" type="line" smooth="yes"/>
      <point x="268" y="389"/>
      <point x="279" y="402"/>
      <point x="300" y="412" type="curve" smooth="yes"/>
      <point x="317" y="420"/>
      <point x="348" y="425"/>
      <point x="353" y="440" type="curve" smooth="yes"/>
      <point x="355" y="448"/>
      <point x="350" y="452"/>
      <point x="338" y="452" type="curve" smooth="yes"/>
      <point x="297" y="452"/>
      <point x="230" y="449"/>
      <point x="197" y="449" type="curve" smooth="yes"/>
      <point x="166" y="449"/>
      <point x="117" y="453"/>
      <point x="78" y="453" type="curve" smooth="yes"/>
      <point x="68" y="453"/>
      <point x="58" y="447"/>
      <point x="56" y="440" type="curve" smooth="yes"/>
      <point x="53" y="433"/>
      <point x="57" y="428"/>
      <point x="68" y="425" type="curve" smooth="yes"/>
      <point x="99" y="417"/>
      <point x="96" y="379"/>
      <point x="91" y="364" type="curve" smooth="yes"/>
      <point x="41" y="204" type="line" smooth="yes"/>
      <point x="3" y="79"/>
      <point x="69" y="-14"/>
      <point x="215" y="-14" type="curve" smooth="yes"/>
    </contour>
  </outline>
</glyph>
<glyph name="Z.pc" format="1">
  <advance width="481"/>
  <note>
    Z.pc
  </note>
  <outline>
    <contour>
      <point x="72" y="-5"/>
      <point x="96" y="1"/>
      <point x="120" y="1" type="curve" smooth="yes"/>
      <point x="203" y="1"/>
      <point x="372" y="-2"/>
      <point x="398" y="-2" type="curve" smooth="yes"/>
      <point x="414" y="-2"/>
      <point x="420" y="3"/>
      <point x="423" y="15" type="curve" smooth="yes"/>
      <point x="434" y="60"/>
      <point x="446" y="94"/>
      <point x="446" y="116" type="curve" smooth="yes"/>
      <point x="446" y="125"/>
      <point x="443" y="135"/>
      <point x="433" y="135" type="curve" smooth="yes"/>
      <point x="424" y="135"/>
      <point x="419" y="131"/>
      <point x="415" y="122" type="curve" smooth="yes"/>
      <point x="395" y="77"/>
      <point x="380" y="45"/>
      <point x="337" y="45" type="curve" smooth="yes"/>
      <point x="255" y="45" type="line" smooth="yes"/>
      <point x="231" y="45"/>
      <point x="233" y="58"/>
      <point x="244" y="78" type="curve" smooth="yes"/>
      <point x="381" y="319" type="line"/>
      <point x="399" y="350"/>
      <point x="434" y="399"/>
      <point x="434" y="411" type="curve" smooth="yes"/>
      <point x="434" y="422"/>
      <point x="430" y="431"/>
      <point x="418" y="431" type="curve" smooth="yes"/>
      <point x="399" y="431"/>
      <point x="281" y="428"/>
      <point x="270" y="428" type="curve"/>
      <point x="200" y="425" type="line" smooth="yes"/>
      <point x="170" y="424"/>
      <point x="160" y="423"/>
      <point x="135" y="429" type="curve" smooth="yes"/>
      <point x="116" y="431"/>
      <point x="96" y="451"/>
      <point x="83" y="451" type="curve" smooth="yes"/>
      <point x="70" y="451"/>
      <point x="65" y="436"/>
      <point x="64" y="426" type="curve" smooth="yes"/>
      <point x="61" y="381"/>
      <point x="35" y="336"/>
      <point x="35" y="321" type="curve" smooth="yes"/>
      <point x="35" y="310"/>
      <point x="36" y="303"/>
      <point x="46" y="303" type="curve"/>
      <point x="64" y="303"/>
      <point x="77" y="315"/>
      <point x="86" y="327" type="curve" smooth="yes"/>
      <point x="110" y="358"/>
      <point x="153" y="384"/>
      <point x="190" y="384" type="curve" smooth="yes"/>
      <point x="203" y="384"/>
      <point x="222" y="383"/>
      <point x="233" y="383" type="curve" smooth="yes"/>
      <point x="246" y="383"/>
      <point x="247" y="374"/>
      <point x="241" y="363" type="curve" smooth="yes"/>
      <point x="77" y="89" type="line" smooth="yes"/>
      <point x="64" y="68"/>
      <point x="33" y="25"/>
      <point x="33" y="15" type="curve" smooth="yes"/>
      <point x="33" y="5"/>
      <point x="42" y="-5"/>
      <point x="54" y="-5" type="curve" smooth="yes"/>
    </contour>
  </outline>
</glyph>
<glyph name=".notdef" format="1">
  <advance width="516"/>
  <note>
    .notdef
  </note>
  <outline>
    <contour>
      <point x="491" y="1" type="line"/>
      <point x="491" y="552" type="line"/>
      <point x="25" y="552" type="line"/>
      <point x="25" y="1" type="line"/>
    </contour>
    <contour>
      <point x="129" y="436" type="line"/>
      <point x="387" y="436" type="line"/>
      <point x="387" y="117" type="line"/>
      <point x="129" y="117" type="line"/>
    </contour>
  </outline>
</glyph>
<glyph name="ampersand.sc" format="1">
  <advance width="655"/>
  <note>
    ampersand.sc
  </note>
  <outline>
    <contour>
      <point x="218" y="-16"/>
      <point x="267" y="-1"/>
      <point x="318" y="50" type="curve" smooth="yes"/>
      <point x="322" y="54" type="line"/>
      <point x="339" y="38" type="line" smooth="yes"/>
      <point x="383" y="-3"/>
      <point x="425" y="-15"/>
      <point x="491" y="-15" type="curve" smooth="yes"/>
      <point x="575" y="-15"/>
      <point x="632" y="39"/>
      <point x="632" y="62" type="curve" smooth="yes"/>
      <point x="632" y="72"/>
      <point x="626" y="80"/>
      <point x="616" y="80" type="curve" smooth="yes"/>
      <point x="610" y="80"/>
      <point x="603" y="76"/>
      <point x="597" y="74" type="curve" smooth="yes"/>
      <point x="574" y="66"/>
      <point x="550" y="64"/>
      <point x="531" y="64" type="curve" smooth="yes"/>
      <point x="500" y="64"/>
      <point x="477" y="90"/>
      <point x="442" y="125" type="curve" smooth="yes"/>
      <point x="428" y="139" type="line"/>
      <point x="468" y="171"/>
      <point x="504" y="200"/>
      <point x="542" y="233" type="curve" smooth="yes"/>
      <point x="560" y="250"/>
      <point x="585" y="269"/>
      <point x="621" y="276" type="curve" smooth="yes"/>
      <point x="639" y="279"/>
      <point x="650" y="288"/>
      <point x="650" y="298" type="curve" smooth="yes"/>
      <point x="650" y="302"/>
      <point x="646" y="308"/>
      <point x="636" y="308" type="curve" smooth="yes"/>
      <point x="607" y="308"/>
      <point x="558" y="291"/>
      <point x="523" y="291" type="curve" smooth="yes"/>
      <point x="491" y="291"/>
      <point x="463" y="297"/>
      <point x="439" y="297" type="curve" smooth="yes"/>
      <point x="425" y="297"/>
      <point x="414" y="296"/>
      <point x="414" y="285" type="curve" smooth="yes"/>
      <point x="414" y="276"/>
      <point x="421" y="274"/>
      <point x="431" y="270" type="curve" smooth="yes"/>
      <point x="443" y="266"/>
      <point x="456" y="260"/>
      <point x="456" y="244" type="curve" smooth="yes"/>
      <point x="456" y="225"/>
      <point x="446" y="198"/>
      <point x="415" y="173" type="curve" smooth="yes"/>
      <point x="404" y="164" type="line"/>
      <point x="282" y="276" type="line"/>
      <point x="302" y="283" type="line" smooth="yes"/>
      <point x="356" y="302"/>
      <point x="384" y="323"/>
      <point x="384" y="370" type="curve" smooth="yes"/>
      <point x="384" y="418"/>
      <point x="328" y="451"/>
      <point x="252" y="451" type="curve" smooth="yes"/>
      <point x="151" y="451"/>
      <point x="85" y="402"/>
      <point x="85" y="342" type="curve" smooth="yes"/>
      <point x="85" y="313"/>
      <point x="102" y="282"/>
      <point x="138" y="252" type="curve" smooth="yes"/>
      <point x="145" y="246" type="line"/>
      <point x="127" y="239" type="line" smooth="yes"/>
      <point x="44" y="207"/>
      <point x="10" y="151"/>
      <point x="10" y="96" type="curve" smooth="yes"/>
      <point x="10" y="20"/>
      <point x="92" y="-16"/>
      <point x="156" y="-16" type="curve" smooth="yes"/>
    </contour>
    <contour>
      <point x="162" y="61"/>
      <point x="129" y="93"/>
      <point x="129" y="148" type="curve" smooth="yes"/>
      <point x="129" y="172"/>
      <point x="133" y="202"/>
      <point x="150" y="212" type="curve" smooth="yes"/>
      <point x="162" y="219" type="line"/>
      <point x="171" y="210" type="line"/>
      <point x="204" y="175"/>
      <point x="246" y="128"/>
      <point x="279" y="93" type="curve"/>
      <point x="291" y="80" type="line"/>
      <point x="286" y="75" type="line" smooth="yes"/>
      <point x="266" y="55"/>
      <point x="232" y="61"/>
      <point x="213" y="61" type="curve" smooth="yes"/>
    </contour>
    <contour>
      <point x="244" y="317" type="line" smooth="yes"/>
      <point x="223" y="336"/>
      <point x="210" y="361"/>
      <point x="211" y="384" type="curve" smooth="yes"/>
      <point x="212" y="404"/>
      <point x="223" y="422"/>
      <point x="247" y="422" type="curve" smooth="yes"/>
      <point x="275" y="422"/>
      <point x="290" y="394"/>
      <point x="290" y="363" type="curve" smooth="yes"/>
      <point x="290" y="343"/>
      <point x="282" y="322"/>
      <point x="269" y="311" type="curve" smooth="yes"/>
      <point x="260" y="303" type="line"/>
    </contour>
  </outline>
</glyph>
<glyph name="asciicircum.ordn" format="1">
  <advance width="350"/>
  <note>
    asciicircum.ordn
  </note>
  <outline>
    <contour>
      <point x="67" y="425"/>
      <point x="79" y="438"/>
      <point x="91" y="453" type="curve"/>
      <point x="173" y="567" type="line"/>
      <point x="178" y="567" type="line"/>
      <point x="259" y="453" type="line"/>
      <point x="271" y="438"/>
      <point x="283" y="425"/>
      <point x="300" y="425" type="curve" smooth="yes"/>
      <point x="322" y="425"/>
      <point x="323" y="437"/>
      <point x="315" y="447" type="curve"/>
      <point x="177" y="648" type="line"/>
      <point x="172" y="648" type="line"/>
      <point x="35" y="447" type="line"/>
      <point x="27" y="437"/>
      <point x="28" y="425"/>
      <point x="50" y="425" type="curve" smooth="yes"/>
    </contour>
  </outline>
</glyph>
<glyph name="backslash.sc" format="1">
  <advance width="326"/>
  <note>
    backslash.sc
  </note>
  <outline>
    <contour>
      <point x="305" y="-62"/>
      <point x="316" y="-52"/>
      <point x="311" y="-42" type="curve" smooth="yes"/>
      <point x="80" y="456" type="line" smooth="yes"/>
      <point x="71" y="475"/>
      <point x="55" y="478"/>
      <point x="33" y="478" type="curve" smooth="yes"/>
      <point x="15" y="478"/>
      <point x="7" y="465"/>
      <point x="11" y="456" type="curve" smooth="yes"/>
      <point x="243" y="-42" type="line" smooth="yes"/>
      <point x="251" y="-60"/>
      <point x="271" y="-62"/>
      <point x="290" y="-62" type="curve" smooth="yes"/>
    </contour>
  </outline>
</glyph>
<glyph name="brokenbar.ordn" format="1">
  <advance width="187"/>
  <note>
    brokenbar.ordn
  </note>
  <outline>
    <contour>
      <point x="83" y="445"/>
      <point x="125" y="447"/>
      <point x="125" y="470" type="curve" smooth="yes"/>
      <point x="125" y="664" type="line" smooth="yes"/>
      <point x="125" y="670"/>
      <point x="118" y="677"/>
      <point x="110" y="677" type="curve" smooth="yes"/>
      <point x="104" y="677"/>
      <point x="60" y="668"/>
      <point x="60" y="645" type="curve" smooth="yes"/>
      <point x="60" y="459" type="line" smooth="yes"/>
      <point x="60" y="452"/>
      <point x="66" y="445"/>
      <point x="73" y="445" type="curve" smooth="yes"/>
    </contour>
    <contour>
      <point x="85" y="170"/>
      <point x="127" y="174"/>
      <point x="127" y="196" type="curve" smooth="yes"/>
      <point x="127" y="399" type="line" smooth="yes"/>
      <point x="127" y="406"/>
      <point x="120" y="413"/>
      <point x="111" y="413" type="curve" smooth="yes"/>
      <point x="105" y="413"/>
      <point x="61" y="403"/>
      <point x="61" y="379" type="curve" smooth="yes"/>
      <point x="61" y="186" type="line" smooth="yes"/>
      <point x="61" y="178"/>
      <point x="67" y="170"/>
      <point x="74" y="170" type="curve" smooth="yes"/>
    </contour>
  </outline>
</glyph>
<glyph name="copyright.sc" format="1">
  <advance width="571"/>
  <note>
    copyright.sc
  </note>
  <outline>
    <contour>
      <point x="425" y="15"/>
      <point x="541" y="130"/>
      <point x="541" y="271" type="curve" smooth="yes"/>
      <point x="541" y="412"/>
      <point x="426" y="527"/>
      <point x="285" y="527" type="curve" smooth="yes"/>
      <point x="144" y="527"/>
      <point x="30" y="412"/>
      <point x="30" y="271" type="curve" smooth="yes"/>
      <point x="30" y="130"/>
      <point x="144" y="15"/>
      <point x="284" y="15" type="curve" smooth="yes"/>
    </contour>
    <contour>
      <point x="335" y="117"/>
      <point x="366" y="126"/>
      <point x="389" y="137" type="curve" smooth="yes"/>
      <point x="395" y="141"/>
      <point x="399" y="139"/>
      <point x="402" y="146" type="curve"/>
      <point x="407" y="170"/>
      <point x="411" y="182"/>
      <point x="411" y="205" type="curve" smooth="yes"/>
      <point x="411" y="214"/>
      <point x="406" y="220"/>
      <point x="399" y="222" type="curve" smooth="yes"/>
      <point x="393" y="224"/>
      <point x="388" y="221"/>
      <point x="384" y="211" type="curve" smooth="yes"/>
      <point x="368" y="172"/>
      <point x="344" y="155"/>
      <point x="305" y="155" type="curve" smooth="yes"/>
      <point x="246" y="155"/>
      <point x="227" y="202"/>
      <point x="227" y="274" type="curve" smooth="yes"/>
      <point x="227" y="330"/>
      <point x="255" y="383"/>
      <point x="310" y="383" type="curve" smooth="yes"/>
      <point x="338" y="383"/>
      <point x="351" y="367"/>
      <point x="362" y="355" type="curve" smooth="yes"/>
      <point x="370" y="345"/>
      <point x="373" y="335"/>
      <point x="377" y="323" type="curve" smooth="yes"/>
      <point x="380" y="314"/>
      <point x="385" y="310"/>
      <point x="392" y="310" type="curve" smooth="yes"/>
      <point x="400" y="309"/>
      <point x="408" y="315"/>
      <point x="408" y="327" type="curve" smooth="yes"/>
      <point x="408" y="348"/>
      <point x="408" y="364"/>
      <point x="405" y="390" type="curve" smooth="yes"/>
      <point x="404" y="397"/>
      <point x="401" y="400"/>
      <point x="394" y="403" type="curve"/>
      <point x="372" y="414"/>
      <point x="339" y="421"/>
      <point x="308" y="421" type="curve" smooth="yes"/>
      <point x="192" y="421"/>
      <point x="134" y="348"/>
      <point x="134" y="266" type="curve" smooth="yes"/>
      <point x="134" y="176"/>
      <point x="200" y="117"/>
      <point x="296" y="117" type="curve" smooth="yes"/>
    </contour>
    <contour>
      <point x="172" y="63"/>
      <point x="82" y="158"/>
      <point x="82" y="271" type="curve" smooth="yes"/>
      <point x="82" y="383"/>
      <point x="173" y="474"/>
      <point x="285" y="474" type="curve" smooth="yes"/>
      <point x="398" y="474"/>
      <point x="489" y="383"/>
      <point x="489" y="271" type="curve" smooth="yes"/>
      <point x="489" y="157"/>
      <point x="399" y="63"/>
      <point x="284" y="63" type="curve" smooth="yes"/>
    </contour>
  </outline>
</glyph>
<glyph name="gravecomb.cap" format="1">
  <advance width="0"/>
  <note>
    gravecomb.cap
  </note>
  <outline>
    <component base="acutecomb.cap" xScale="-1"/>
    <contour>
      <point x="77" y="675" type="move" name="_top.cap"/>
    </contour>
  </outline>
</glyph>
<glyph name="guilsinglleft.alt" format="1">
  <advance width="401"/>
  <note>
    guilsinglleft.alt
  </note>
  <outline>
    <contour>
      <point x="338" y="25"/>
      <point x="341" y="30"/>
      <point x="341" y="37" type="curve" smooth="yes"/>
      <point x="341" y="42"/>
      <point x="338" y="48"/>
      <point x="335" y="53" type="curve"/>
      <point x="260" y="156"/>
      <point x="237" y="183"/>
      <point x="219" y="203" type="curve" smooth="yes"/>
      <point x="202" y="222"/>
      <point x="201" y="229"/>
      <point x="218" y="248" type="curve" smooth="yes"/>
      <point x="243" y="276"/>
      <point x="271" y="309"/>
      <point x="335" y="405" type="curve" smooth="yes"/>
      <point x="339" y="411"/>
      <point x="341" y="416"/>
      <point x="341" y="422" type="curve" smooth="yes"/>
      <point x="341" y="428"/>
      <point x="338" y="433"/>
      <point x="334" y="433" type="curve" smooth="yes"/>
      <point x="324" y="433"/>
      <point x="310" y="425"/>
      <point x="298" y="412" type="curve" smooth="yes"/>
      <point x="229" y="337"/>
      <point x="161" y="284"/>
      <point x="93" y="253" type="curve" smooth="yes"/>
      <point x="71" y="243"/>
      <point x="65" y="233"/>
      <point x="65" y="225" type="curve" smooth="yes"/>
      <point x="65" y="210"/>
      <point x="75" y="201"/>
      <point x="96" y="189" type="curve" smooth="yes"/>
      <point x="182" y="140"/>
      <point x="216" y="128"/>
      <point x="298" y="46" type="curve" smooth="yes"/>
      <point x="304" y="40"/>
      <point x="319" y="25"/>
      <point x="334" y="25" type="curve" smooth="yes"/>
    </contour>
  </outline>
</glyph>
<glyph name="percent.sc" format="1">
  <advance width="751"/>
  <note>
    percent.sc
  </note>
  <outline>
    <contour>
      <point x="175" y="-18"/>
      <point x="190" y="-13"/>
      <point x="203" y="2" type="curve" smooth="yes"/>
      <point x="624" y="467" type="line"/>
      <point x="625" y="468"/>
      <point x="625" y="471"/>
      <point x="625" y="472" type="curve" smooth="yes"/>
      <point x="625" y="480"/>
      <point x="616" y="490"/>
      <point x="606" y="490" type="curve" smooth="yes"/>
      <point x="583" y="490"/>
      <point x="571" y="485"/>
      <point x="554" y="467" type="curve" smooth="yes"/>
      <point x="133" y="2" type="line"/>
      <point x="132" y="1"/>
      <point x="132" y="-1"/>
      <point x="132" y="-2" type="curve" smooth="yes"/>
      <point x="132" y="-10"/>
      <point x="144" y="-18"/>
      <point x="155" y="-18" type="curve" smooth="yes"/>
    </contour>
    <contour>
      <point x="255" y="155"/>
      <point x="321" y="210"/>
      <point x="321" y="322" type="curve" smooth="yes"/>
      <point x="321" y="416"/>
      <point x="264" y="481"/>
      <point x="179" y="481" type="curve" smooth="yes"/>
      <point x="88" y="481"/>
      <point x="30" y="416"/>
      <point x="30" y="315" type="curve" smooth="yes"/>
      <point x="30" y="218"/>
      <point x="92" y="155"/>
      <point x="172" y="155" type="curve" smooth="yes"/>
    </contour>
    <contour>
      <point x="151" y="189"/>
      <point x="137" y="258"/>
      <point x="137" y="322" type="curve" smooth="yes"/>
      <point x="137" y="387"/>
      <point x="145" y="446"/>
      <point x="171" y="446" type="curve" smooth="yes"/>
      <point x="200" y="446"/>
      <point x="215" y="379"/>
      <point x="215" y="314" type="curve" smooth="yes"/>
      <point x="215" y="248"/>
      <point x="205" y="189"/>
      <point x="180" y="189" type="curve" smooth="yes"/>
    </contour>
    <contour>
      <point x="655" y="-43"/>
      <point x="721" y="12"/>
      <point x="721" y="124" type="curve" smooth="yes"/>
      <point x="721" y="218"/>
      <point x="664" y="283"/>
      <point x="579" y="283" type="curve" smooth="yes"/>
      <point x="488" y="283"/>
      <point x="430" y="218"/>
      <point x="430" y="117" type="curve" smooth="yes"/>
      <point x="430" y="20"/>
      <point x="492" y="-43"/>
      <point x="572" y="-43" type="curve" smooth="yes"/>
    </contour>
    <contour>
      <point x="551" y="-9"/>
      <point x="537" y="60"/>
      <point x="537" y="124" type="curve" smooth="yes"/>
      <point x="537" y="189"/>
      <point x="545" y="248"/>
      <point x="571" y="248" type="curve" smooth="yes"/>
      <point x="600" y="248"/>
      <point x="615" y="181"/>
      <point x="615" y="116" type="curve" smooth="yes"/>
      <point x="615" y="50"/>
      <point x="605" y="-9"/>
      <point x="580" y="-9" type="curve" smooth="yes"/>
    </contour>
  </outline>
</glyph>
<glyph name="registered.sc" format="1">
  <advance width="571"/>
  <note>
    registered.sc
  </note>
  <outline>
    <contour>
      <point x="425" y="15"/>
      <point x="541" y="130"/>
      <point x="541" y="271" type="curve" smooth="yes"/>
      <point x="541" y="412"/>
      <point x="426" y="527"/>
      <point x="285" y="527" type="curve" smooth="yes"/>
      <point x="144" y="527"/>
      <point x="30" y="412"/>
      <point x="30" y="271" type="curve" smooth="yes"/>
      <point x="30" y="130"/>
      <point x="144" y="15"/>
      <point x="284" y="15" type="curve" smooth="yes"/>
    </contour>
    <contour>
      <point x="172" y="63"/>
      <point x="82" y="158"/>
      <point x="82" y="271" type="curve" smooth="yes"/>
      <point x="82" y="383"/>
      <point x="173" y="474"/>
      <point x="285" y="474" type="curve" smooth="yes"/>
      <point x="398" y="474"/>
      <point x="489" y="383"/>
      <point x="489" y="271" type="curve" smooth="yes"/>
      <point x="489" y="157"/>
      <point x="399" y="63"/>
      <point x="284" y="63" type="curve" smooth="yes"/>
    </contour>
    <contour>
      <point x="176" y="141"/>
      <point x="204" y="144"/>
      <point x="221" y="144" type="curve" smooth="yes"/>
      <point x="238" y="144"/>
      <point x="275" y="141"/>
      <point x="293" y="141" type="curve" smooth="yes"/>
      <point x="298" y="141"/>
      <point x="302" y="146"/>
      <point x="302" y="152" type="curve" smooth="yes"/>
      <point x="302" y="160"/>
      <point x="297" y="162"/>
      <point x="292" y="163" type="curve"/>
      <point x="267" y="169"/>
      <point x="260" y="173"/>
      <point x="260" y="189" type="curve" smooth="yes"/>
      <point x="260" y="256" type="line" smooth="yes"/>
      <point x="260" y="261"/>
      <point x="262" y="264"/>
      <point x="265" y="264" type="curve" smooth="yes"/>
      <point x="269" y="264"/>
      <point x="272" y="260"/>
      <point x="274" y="255" type="curve" smooth="yes"/>
      <point x="303" y="192"/>
      <point x="350" y="142"/>
      <point x="386" y="142" type="curve" smooth="yes"/>
      <point x="426" y="142"/>
      <point x="442" y="154"/>
      <point x="442" y="169" type="curve" smooth="yes"/>
      <point x="442" y="173"/>
      <point x="440" y="176"/>
      <point x="436" y="176" type="curve" smooth="yes"/>
      <point x="414" y="176"/>
      <point x="367" y="200"/>
      <point x="337" y="271" type="curve" smooth="yes"/>
      <point x="336" y="273"/>
      <point x="336" y="276"/>
      <point x="338" y="277" type="curve"/>
      <point x="363" y="288"/>
      <point x="388" y="310"/>
      <point x="388" y="346" type="curve" smooth="yes"/>
      <point x="388" y="388"/>
      <point x="346" y="416"/>
      <point x="281" y="416" type="curve" smooth="yes"/>
      <point x="249" y="416"/>
      <point x="241" y="413"/>
      <point x="221" y="413" type="curve" smooth="yes"/>
      <point x="199" y="413"/>
      <point x="187" y="416"/>
      <point x="159" y="416" type="curve" smooth="yes"/>
      <point x="154" y="416"/>
      <point x="151" y="413"/>
      <point x="151" y="410" type="curve" smooth="yes"/>
      <point x="151" y="405"/>
      <point x="154" y="402"/>
      <point x="160" y="401" type="curve" smooth="yes"/>
      <point x="180" y="398"/>
      <point x="180" y="391"/>
      <point x="180" y="373" type="curve" smooth="yes"/>
      <point x="180" y="189" type="line" smooth="yes"/>
      <point x="180" y="173"/>
      <point x="180" y="169"/>
      <point x="158" y="163" type="curve"/>
      <point x="152" y="162"/>
      <point x="148" y="159"/>
      <point x="148" y="152" type="curve" smooth="yes"/>
      <point x="148" y="147"/>
      <point x="154" y="141"/>
      <point x="157" y="141" type="curve" smooth="yes"/>
    </contour>
    <contour>
      <point x="264" y="294"/>
      <point x="258" y="298"/>
      <point x="258" y="306" type="curve" smooth="yes"/>
      <point x="258" y="371" type="line" smooth="yes"/>
      <point x="258" y="381"/>
      <point x="261" y="386"/>
      <point x="277" y="386" type="curve" smooth="yes"/>
      <point x="304" y="386"/>
      <point x="316" y="374"/>
      <point x="316" y="340" type="curve" smooth="yes"/>
      <point x="316" y="319"/>
      <point x="305" y="293"/>
      <point x="272" y="294" type="curve" smooth="yes"/>
    </contour>
  </outline>
</glyph>
